<?xml version="1.0" encoding="UTF-8" standalone="no"?>
<!-- Created with Inkscape (http://www.inkscape.org/) -->

<svg
   version="1.1"
   id="svg2"
   width="344"
   height="344"
   viewBox="0 0 344 344"
   xmlns="http://www.w3.org/2000/svg"
   xmlns:svg="http://www.w3.org/2000/svg">
  <defs
     id="defs6" />
  <g
     id="g8"
     transform="matrix(1.3333333,0,0,1.3333333,0,8.6e-6)">
    <g
       id="g10">
      <path
         d="M 258,129 C 258,200.246 200.246,258 129,258 57.754,258 0,200.246 0,129 0,57.754 57.754,0 129,0 200.246,0 258,57.754 258,129 Z"
         style="fill:#000000;fill-opacity:1;fill-rule:nonzero;stroke:none"
         id="path12" />
      <path
         d="M 256.5,129 C 256.5,199.418 199.418,256.5 129,256.5 58.582,256.5 1.5,199.418 1.5,129 1.5,58.582 58.582,1.5 129,1.5 199.418,1.5 256.5,58.582 256.5,129 Z"
         style="fill:#ffffff;fill-opacity:1;fill-rule:nonzero;stroke:none"
         id="path14" />
      <path
         d="M 252,129 C 252,196.93 196.93,252 129,252 61.07,252 6,196.93 6,129 6,61.07 61.07,6 129,6 196.93,6 252,61.07 252,129 Z"
         style="fill:#000000;fill-opacity:1;fill-rule:nonzero;stroke:none"
         id="path16" />
      <path
         d="M 250.5,129 C 250.5,196.102 196.102,250.5 129,250.5 61.898,250.5 7.5,196.102 7.5,129 7.5,61.898 61.898,7.5 129,7.5 196.102,7.5 250.5,61.898 250.5,129 Z"
         style="fill:#29633a;fill-opacity:1;fill-rule:nonzero;stroke:none"
         id="path18" />
      <path
         d="m 228,129 c 0,54.676 -44.324,99 -99,99 -54.676,0 -99,-44.324 -99,-99 0,-54.676 44.324,-99 99,-99 54.676,0 99,44.324 99,99 z"
         style="fill:#000000;fill-opacity:1;fill-rule:nonzero;stroke:none"
         id="path20" />
      <path
         d="m 226.5,129 c 0,53.848 -43.652,97.5 -97.5,97.5 -53.848,0 -97.5,-43.652 -97.5,-97.5 0,-53.848 43.652,-97.5 97.5,-97.5 53.848,0 97.5,43.652 97.5,97.5 z"
         style="fill:#ffffff;fill-opacity:1;fill-rule:nonzero;stroke:none"
         id="path22" />
      <path
         d="m 164.59,58.496 c -1.301,0.289 -2.559,0.707 -3.781,1.262 -1.207,0.39 -2.188,1.09 -2.942,2.097 -1.332,0.598 -2.73,1.02 -4.199,1.262 -0.418,-0.07 -0.699,0.067 -0.844,0.422 -0.789,-0.117 -1.347,0.164 -1.679,0.84 -2.344,1.363 -4.446,3.043 -6.301,5.043 -0.379,0.332 -0.66,0.75 -0.84,1.258 -1.078,1.519 -2.477,2.64 -4.203,3.363 -0.84,0.559 -1.539,1.258 -2.102,2.102 -0.418,0.136 -0.699,0.417 -0.84,0.835 -0.558,0 -0.839,0.282 -0.839,0.844 -1.45,1.149 -2.43,2.617 -2.942,4.41 0.723,2.094 1,4.266 0.844,6.512 -0.32,3.211 -0.461,6.434 -0.422,9.664 -0.277,1.242 -0.418,2.5 -0.422,3.781 -0.965,1.61 -1.242,3.289 -0.84,5.039 0.008,0.641 0.285,1.129 0.84,1.473 2.684,1.488 5.067,3.379 7.145,5.672 0.652,2.266 1.215,4.508 1.679,6.723 0.625,2.05 1.118,4.152 1.469,6.3 1.477,2.809 2.598,5.75 3.363,8.821 0.84,3.086 2.524,5.609 5.043,7.566 1.078,1.746 0.727,3.078 -1.05,3.988 -3.223,0.352 -6.024,1.614 -8.403,3.782 -1.59,0.172 -3.133,0.523 -4.625,1.05 -1.429,0.227 -2.691,0.79 -3.777,1.68 -1.137,0.145 -1.977,0.707 -2.524,1.68 -2.082,2.851 -4.742,5.023 -7.98,6.515 -2.539,0.391 -4.848,1.172 -6.953,2.29 -2.641,1.406 -4.949,3.359 -6.914,5.902 -0.352,0.144 -0.492,0.422 -0.418,0.84 -0.563,0.281 -0.981,0.699 -1.262,1.261 -0.812,1.77 -1.516,3.59 -2.098,5.461 -0.355,0.145 -0.492,0.422 -0.421,0.84 -0.633,0.707 -1.055,1.547 -1.262,2.52 -0.281,0 -0.418,0.14 -0.418,0.422 -1.668,1.796 -2.789,3.898 -3.363,6.3 -0.278,0 -0.418,0.141 -0.418,0.422 -0.625,1.809 -1.254,3.633 -1.891,5.461 -0.406,4.754 -0.688,9.516 -0.84,14.281 -0.836,2.704 -1.605,5.364 -2.312,7.985 v 2.101 c 0.273,0.5 0.379,1.059 0.414,1.645 0.3,0.117 0.605,0.23 0.91,0.34 0.59,0.183 1.18,0.363 1.769,0.535 9.993,3.476 20.481,5.305 31.059,5.414 10.688,-0.07 21.293,-1.898 31.387,-5.41 27.383,-9.379 49.179,-30.438 59.5,-57.473 -4.02,-1.535 -8.032,-3.097 -12.024,-4.711 -2.57,-3.039 -5.793,-5.14 -9.664,-6.301 -0.191,-0.57 -0.59,-0.851 -1.199,-0.843 -0.02,0.004 -0.039,0.004 -0.062,0.004 -1.434,-1.278 -3.114,-2.118 -5.04,-2.52 -0.722,-0.644 -1.562,-1.062 -2.519,-1.262 -0.734,-0.574 -1.578,-0.996 -2.524,-1.257 -0.167,-4.594 0.602,-9.075 2.313,-13.446 -0.141,-2.351 0.492,-4.453 1.891,-6.301 1.55,-0.316 3.089,-0.668 4.621,-1.05 1.043,-0.278 1.746,-0.907 2.101,-1.891 0.981,-0.633 1.75,-1.473 2.309,-2.523 0.898,-3.571 2.019,-7.075 3.363,-10.504 1.473,-0.598 2.942,-1.227 4.41,-1.891 2.133,-1.66 4.305,-3.269 6.512,-4.828 0.754,-1.859 0.82,-3.75 0.211,-5.672 1.176,-1.723 1.945,-3.613 2.309,-5.672 0.57,-0.5 1.058,-1.058 1.472,-1.683 -3.672,-3.547 -7.383,-7.051 -11.133,-10.5 -0.203,-0.399 -0.273,-0.821 -0.211,-1.262 -0.867,-0.078 -1.707,-0.289 -2.519,-0.629 -0.844,-0.977 -1.824,-1.75 -2.942,-2.313 0.028,-0.64 -0.25,-1.062 -0.843,-1.261 -0.024,-0.465 -0.16,-0.883 -0.418,-1.258 -0.332,-0.379 -0.754,-0.66 -1.262,-0.84 -0.141,-0.422 -0.418,-0.703 -0.84,-0.844 -0.551,-1.105 -1.25,-2.086 -2.097,-2.937 -1.879,-1.852 -3.981,-3.391 -6.305,-4.621 -0.141,-0.422 -0.418,-0.703 -0.84,-0.844 h -0.84 c -1.023,-0.574 -2.144,-0.996 -3.359,-1.258 h -0.844 c -2.758,-0.668 -5.418,-1.719 -7.98,-3.152 -1.887,-0.32 -3.707,-0.668 -5.461,-1.051 z m -66.649,162.59 c -0.589,-0.172 -1.179,-0.352 -1.769,-0.535 0.476,0.183 0.957,0.363 1.437,0.535 z"
         style="fill:#000000;fill-opacity:1;fill-rule:nonzero;stroke:none"
         id="path24" />
      <path
         d="m 200.527,195.008 c -0.558,-4.531 -1.449,-9.008 -2.746,-13.414 3.844,-3.352 6.992,-7.274 9.453,-11.762 1.668,-3.57 1.875,-7.215 0.629,-10.926 -2.57,-3.039 -5.793,-5.14 -9.664,-6.301 -0.64,0.032 -1.062,-0.25 -1.258,-0.839 -1.437,-1.278 -3.117,-2.118 -5.043,-2.52 -1.132,0.445 -1.972,0.027 -2.519,-1.262 -0.734,-0.574 -1.578,-0.996 -2.524,-1.261 1.891,4.902 0.911,9.172 -2.941,12.816 -3.285,1.816 -6.785,3.008 -10.5,3.57 -1.531,-0.625 -3.07,-1.187 -4.621,-1.679 -1.09,-0.266 -2.07,-0.754 -2.945,-1.473 0.453,-0.723 0.523,-1.492 0.211,-2.309 -2.743,-2.269 -4.004,-5.21 -3.782,-8.824 l -1.468,-1.469 c -1.461,-0.199 -2.723,-0.761 -3.782,-1.679 2.285,-1.602 4.735,-2.93 7.352,-3.992 0.621,-0.399 1.043,-0.957 1.262,-1.68 1.089,0.621 2.07,0.48 2.941,-0.422 0.203,0.398 0.273,0.816 0.211,1.258 1.141,0.422 2.262,0.281 3.359,-0.418 0.539,-1.238 1.379,-2.219 2.52,-2.942 0.476,-0.964 1.039,-1.875 1.683,-2.73 -0.281,-0.141 -0.562,-0.281 -0.843,-0.418 0.797,-1.426 1.078,-2.894 0.843,-4.414 0.61,-1.516 1.586,-2.707 2.938,-3.57 -0.418,-0.141 -0.84,-0.282 -1.258,-0.418 1.707,-1.575 3.527,-2.977 5.461,-4.203 -0.402,-0.301 -0.469,-0.653 -0.211,-1.051 1.754,-1.399 3.086,-3.078 3.992,-5.039 h -1.679 c 0.168,-3.606 -1.512,-5.285 -5.043,-5.043 -0.227,1.941 -1.348,2.922 -3.364,2.941 -1.164,0.356 -2.281,0.492 -3.359,0.418 -1.652,0.57 -2.215,0.012 -1.68,-1.68 -0.316,-0.453 -0.734,-0.519 -1.261,-0.211 -0.411,0.903 -1.11,1.391 -2.098,1.473 -0.945,-0.383 -1.785,-0.941 -2.523,-1.683 -0.336,0.191 -0.477,0.472 -0.422,0.839 v 1.262 c -0.989,0.07 -1.969,0 -2.938,-0.211 -1.949,-0.945 -3.562,-2.277 -4.832,-3.988 -0.281,-0.563 -0.281,-1.121 0,-1.684 1.067,-1.199 2.395,-1.968 3.992,-2.308 1.957,-0.133 3.848,-0.203 5.672,-0.211 0.547,0.058 0.895,0.34 1.051,0.84 2.465,0.543 4.914,0.824 7.352,0.839 0.601,-0.179 1.089,-0.531 1.468,-1.05 -1.195,-1.055 -2.246,-2.242 -3.148,-3.571 -1.137,-3.562 -0.645,-6.851 1.469,-9.871 -0.711,-1.097 -1.204,-2.285 -1.469,-3.57 -1.481,-0.246 -3.09,-0.527 -4.832,-0.844 -0.692,0.188 -1.391,0.328 -2.102,0.422 -1.953,-0.273 -3.914,-0.484 -5.883,-0.629 -0.386,-0.156 -0.734,-0.371 -1.05,-0.633 -3.356,0.914 -6.578,1.614 -9.66,2.102 -2.313,-0.524 -4.344,0.035 -6.094,1.68 -1.278,2.129 -2.188,4.371 -2.731,6.722 0.02,-1.289 -0.468,-2.269 -1.468,-2.941 -0.54,0.933 -0.399,1.777 0.417,2.523 -1.421,0.903 -1.839,2.09 -1.261,3.571 -0.348,0.382 -0.766,0.664 -1.258,0.839 0.102,0.875 0.102,1.719 0,2.52 0.84,0.281 1.68,0.562 2.519,0.84 -0.281,0.14 -0.558,0.281 -0.839,0.422 0.371,0.297 0.648,0.648 0.839,1.05 0.141,0.282 0.282,0.559 0.418,0.84 0.02,0.453 0.161,0.875 0.422,1.262 -0.418,1.063 -0.769,1.063 -1.05,0 -0.332,0.524 -0.543,1.082 -0.629,1.68 0.168,1.664 0.8,1.945 1.89,0.84 0.168,0.097 0.239,0.234 0.211,0.418 0.352,0.144 0.492,0.425 0.418,0.839 -0.07,0.559 0.07,1.047 0.422,1.473 -0.594,2.32 -1.012,4.633 -1.262,6.934 0.625,2.05 1.118,4.152 1.469,6.3 1.477,2.809 2.598,5.75 3.363,8.821 0.84,3.086 2.524,5.609 5.043,7.566 1.078,1.746 0.727,3.078 -1.05,3.988 -3.223,0.352 -6.024,1.614 -8.403,3.782 -1.59,0.172 -3.133,0.523 -4.625,1.05 -1.086,0.895 -2.344,1.454 -3.777,1.68 -1.137,0.145 -1.977,0.707 -2.524,1.68 -0.859,1.234 -1.562,2.566 -2.097,3.992 0.742,2.512 1.652,4.961 2.726,7.352 1.285,1.425 2.407,2.964 3.364,4.625 3.828,3.054 7.121,6.554 9.875,10.5 0.257,8.988 0.886,17.949 1.886,26.89 0.426,-0.351 0.918,-0.492 1.473,-0.422 -0.094,-0.492 0.047,-0.914 0.418,-1.257 0.355,1.617 1.336,2.457 2.945,2.519 -0.14,-2.527 0,-5.047 0.418,-7.562 -0.824,-0.567 -0.894,-1.125 -0.211,-1.68 0.137,0.867 0.489,1.008 1.051,0.418 0.586,0.914 0.445,1.683 -0.422,2.312 0.864,1.594 1.285,3.344 1.262,5.25 0.441,-0.062 0.863,0.008 1.262,0.211 -0.446,0.582 -0.512,1.211 -0.211,1.891 0.203,-0.399 0.273,-0.816 0.211,-1.262 h 1.679 c -0.093,-0.492 0.047,-0.914 0.422,-1.262 0.278,0.704 0.559,1.403 0.84,2.106 0.34,-0.133 0.617,-0.344 0.84,-0.633 -0.004,-1.816 -0.004,-3.633 0,-5.461 -0.027,-0.719 0.254,-1.277 0.84,-1.68 -0.426,-0.218 -0.707,-0.57 -0.84,-1.05 0.144,-0.567 0.285,-1.129 0.418,-1.68 0.402,-0.191 0.754,-0.473 1.051,-0.84 0.269,0.465 0.476,0.953 0.629,1.469 -0.032,1.258 -0.168,2.519 -0.418,3.781 0.308,1.399 0.871,2.656 1.679,3.781 l -0.418,0.418 c 1.336,0.004 2.528,0.352 3.571,1.051 0.019,-1.703 0.371,-2.824 1.05,-3.359 -0.054,-0.789 -0.195,-1.559 -0.421,-2.313 0.171,-0.394 0.453,-0.675 0.839,-0.84 -0.547,-0.335 -0.828,-0.828 -0.839,-1.468 0.207,-2.055 0.207,-4.157 0,-6.305 0.683,-0.059 1.171,0.223 1.472,0.844 0.383,1.074 0.176,1.984 -0.633,2.73 0.453,0.281 0.735,0.703 0.84,1.262 0.203,1.43 0.485,2.832 0.844,4.199 -0.184,1.281 -0.184,2.61 0,3.988 1.402,0.211 2.66,0.774 3.777,1.684 0.172,-0.445 0.172,-1.004 0,-1.684 0.496,0.094 0.918,-0.042 1.262,-0.418 -0.742,-7.675 -1.094,-15.378 -1.051,-23.105 1.047,4.859 1.817,9.766 2.313,14.703 0.226,2.586 0.859,5.106 1.89,7.563 1.399,-0.309 2.657,-0.871 3.782,-1.68 -0.11,-2.113 -0.039,-4.215 0.207,-6.301 0.691,1.899 1.113,3.86 1.261,5.879 1.625,-0.027 3.098,0.113 4.411,0.422 0.097,-1.359 0.167,-2.621 0.21,-3.781 v -0.422 c -0.214,-1.895 -0.496,-3.926 -0.839,-6.09 0.066,-0.934 0.203,-1.844 0.422,-2.73 0.3,-0.176 0.511,-0.458 0.628,-0.844 0.504,1.265 0.856,2.594 1.051,3.992 -0.172,0.398 -0.449,0.68 -0.84,0.84 0.649,0.605 1,1.375 1.051,2.312 0.098,2.082 0.238,4.18 0.418,6.301 0.102,0.145 0.219,0.258 0.324,0.395 1.684,-1.274 3.325,-2.598 4.922,-3.973 -0.496,-0.609 -0.512,-1.305 0.008,-2.094 -1.066,-0.875 -1.066,-1.715 0,-2.519 -0.527,-0.176 -0.809,-0.528 -0.84,-1.051 v -1.258 c 0.047,-0.262 0.184,-0.473 0.418,-0.633 -0.766,-0.613 -0.976,-1.386 -0.629,-2.312 0.449,-0.059 0.938,-0.059 1.469,0 -0.281,0.422 -0.559,0.844 -0.84,1.262 0.184,0.425 0.465,0.425 0.84,0 0.535,0.968 0.394,1.808 -0.418,2.519 1.52,0.52 1.66,1.359 0.418,2.523 0.144,0.5 0.355,0.5 0.633,0 l 0.629,1.262 c 0.015,0.196 0.011,0.395 0.023,0.59 1.664,-1.551 3.274,-3.16 4.824,-4.824 z"
         style="fill:#fcfcfc;fill-opacity:1;fill-rule:evenodd;stroke:none"
         id="path26" />
      <path
         d="m 189.07,205.516 c -0.105,-0.137 -0.222,-0.25 -0.324,-0.395 -0.18,-2.121 -0.32,-4.219 -0.418,-6.301 -0.051,-0.937 -0.402,-1.707 -1.051,-2.312 0.391,-0.16 0.668,-0.442 0.84,-0.84 -0.195,-1.398 -0.547,-2.727 -1.051,-3.992 -0.117,0.386 -0.328,0.668 -0.628,0.844 -0.219,0.886 -0.356,1.796 -0.422,2.73 0.343,2.164 0.625,4.195 0.839,6.09 v 0.422 c -0.043,1.16 -0.113,2.422 -0.21,3.781 -1.313,-0.309 -2.786,-0.449 -4.411,-0.422 -0.148,-2.019 -0.57,-3.98 -1.261,-5.879 -0.246,2.086 -0.317,4.188 -0.207,6.301 -1.125,0.809 -2.383,1.371 -3.782,1.68 -1.031,-2.457 -1.664,-4.977 -1.89,-7.563 -0.496,-4.937 -1.266,-9.844 -2.313,-14.703 -0.043,7.727 0.309,15.43 1.051,23.105 -0.344,0.376 -0.766,0.512 -1.262,0.418 0.172,0.68 0.172,1.239 0,1.684 -1.117,-0.91 -2.375,-1.473 -3.777,-1.684 -0.184,-1.378 -0.184,-2.707 0,-3.988 -0.359,-1.367 -0.641,-2.769 -0.844,-4.199 -0.105,-0.559 -0.387,-0.981 -0.84,-1.262 0.809,-0.746 1.016,-1.656 0.633,-2.73 -0.301,-0.621 -0.789,-0.903 -1.472,-0.844 0.207,2.148 0.207,4.25 0,6.305 0.011,0.64 0.292,1.133 0.839,1.468 -0.386,0.165 -0.668,0.446 -0.839,0.84 0.226,0.754 0.367,1.524 0.421,2.313 -0.679,0.535 -1.031,1.656 -1.05,3.359 -1.043,-0.699 -2.235,-1.047 -3.571,-1.051 l 0.418,-0.418 c -0.808,-1.125 -1.371,-2.382 -1.679,-3.781 0.25,-1.262 0.386,-2.523 0.418,-3.781 -0.153,-0.516 -0.36,-1.004 -0.629,-1.469 -0.297,0.367 -0.649,0.649 -1.051,0.84 -0.133,0.551 -0.274,1.113 -0.418,1.68 0.133,0.48 0.414,0.832 0.84,1.05 -0.586,0.403 -0.867,0.961 -0.84,1.68 -0.004,1.828 -0.004,3.645 0,5.461 -0.223,0.289 -0.5,0.5 -0.84,0.633 -0.281,-0.703 -0.562,-1.402 -0.84,-2.106 -0.375,0.348 -0.515,0.77 -0.422,1.262 h -1.679 c 0.062,0.446 -0.008,0.863 -0.211,1.262 -0.301,-0.68 -0.235,-1.309 0.211,-1.891 -0.399,-0.203 -0.821,-0.273 -1.262,-0.211 0.023,-1.906 -0.398,-3.656 -1.262,-5.25 0.867,-0.629 1.008,-1.398 0.422,-2.312 -0.562,0.59 -0.914,0.449 -1.051,-0.418 -0.683,0.555 -0.613,1.113 0.211,1.68 -0.418,2.515 -0.558,5.035 -0.418,7.562 -1.609,-0.062 -2.59,-0.902 -2.945,-2.519 -0.371,0.343 -0.512,0.765 -0.418,1.257 -0.555,-0.07 -1.047,0.071 -1.473,0.422 -1,-8.941 -1.629,-17.902 -1.886,-26.89 -2.754,-3.946 -6.047,-7.446 -9.875,-10.5 -0.957,-1.661 -2.079,-3.2 -3.364,-4.625 -1.074,-2.391 -1.984,-4.84 -2.726,-7.352 0.535,-1.426 1.238,-2.758 2.097,-3.992 -2.082,2.851 -4.742,5.023 -7.98,6.515 -5.715,0.883 -10.34,3.618 -13.867,8.192 2.39,-0.195 4.769,-0.477 7.144,-0.84 1.567,-2.059 3.457,-3.742 5.672,-5.043 1.035,2.344 2.293,4.586 3.781,6.723 0.59,1.492 1.012,3.035 1.258,4.621 3.09,3.133 2.461,5.445 -1.886,6.933 1.164,0.329 2.214,0.114 3.148,-0.632 0.531,0.109 0.949,0.39 1.262,0.843 0.965,-0.082 1.804,-0.64 2.519,-1.683 0.352,0.351 0.699,0.703 1.051,1.051 1.41,0.089 2.809,0.089 4.199,0 0.25,0.636 0.531,1.265 0.844,1.89 0.559,-0.422 1.121,-0.84 1.68,-1.258 0.273,0.692 0.691,1.25 1.257,1.68 0.989,-0.449 1.969,-0.379 2.942,0.211 -0.387,1.441 -1.086,2.703 -2.098,3.781 -0.59,0.246 -1.148,0.176 -1.679,-0.211 -0.333,0.309 -0.614,0.66 -0.844,1.047 0.25,1.723 0.672,3.403 1.261,5.043 -0.285,4.117 -0.566,8.25 -0.839,12.395 0.14,0.281 0.281,0.562 0.422,0.839 -1.641,1.43 -2.133,3.11 -1.473,5.043 0.14,-1.089 0.422,-2.207 0.84,-3.363 0.14,0.281 0.281,0.563 0.422,0.844 0.843,-2.336 1.824,-2.477 2.937,-0.422 0.305,-0.398 0.652,-0.469 1.051,-0.211 -0.449,0.727 -0.52,1.496 -0.207,2.313 0.34,-0.875 0.828,-1.645 1.469,-2.313 -0.235,-0.305 -0.375,-0.656 -0.418,-1.051 0.254,-1.109 0.464,-2.23 0.629,-3.359 0.449,5.176 0.8,10.359 1.05,15.543 4.5,-0.063 8.981,-0.055 13.446,0 10.367,-3.543 20.062,-8.805 28.679,-15.57 z"
         style="fill:#5e605d;fill-opacity:1;fill-rule:evenodd;stroke:none"
         id="path28" />
      <path
         d="m 195.703,199.832 c -0.012,-0.195 -0.008,-0.394 -0.023,-0.59 -0.332,-0.605 -0.653,-1.758 -1,-1.285 0.718,-0.57 1.035,-1.031 1.058,-1.453 0.024,-0.426 -0.246,-0.816 -0.703,-1.242 0.012,0.234 -0.441,0.015 -0.316,-0.989 0.121,-1 -0.301,-2.597 -0.301,-2.597 l -0.766,-0.875 -1.308,1.07 0.23,2.348 0.586,1.66 c 0,0 -0.074,1.219 0.453,1.394 -1.066,0.805 -0.679,1.301 0.387,2.176 -0.52,0.789 -0.504,1.485 -0.008,2.094 0.578,-0.563 1.149,-1.133 1.711,-1.711 z"
         style="fill:#5e605d;fill-opacity:1;fill-rule:evenodd;stroke:none"
         id="path30" />
      <path
         d="m 162.277,122.355 c -0.047,0.872 -0.468,1.434 -1.257,1.684 -1.75,-0.859 -3.5,-0.934 -5.254,-0.215 -1.371,0.692 -1.512,1.461 -0.418,2.313 -0.356,0.472 -0.778,0.472 -1.262,0 v 0.84 c 0.676,0.461 1.305,1.023 1.891,1.683 0.023,1.379 0.585,1.801 1.683,1.258 1.035,0.523 2.086,1.012 3.149,1.473 -0.704,0.414 -1.403,0.761 -2.102,1.05 -0.141,0.352 -0.422,0.493 -0.84,0.418 -1.476,-0.234 -2.734,0.047 -3.781,0.84 -0.648,0.278 -1.348,0.559 -2.098,0.84 -0.426,0.379 -0.426,0.656 0,0.844 0.926,-0.645 1.977,-0.926 3.149,-0.844 1.34,0.102 2.668,0.242 3.992,0.422 0.711,-0.066 1.414,0 2.098,0.207 -0.192,0.176 -0.329,0.387 -0.418,0.633 -1.036,0.281 -2.016,0.558 -2.942,0.84 1.34,-0.098 2.676,-0.2 4.004,-0.305 1.332,-0.102 2.656,-0.211 3.981,-0.324 -1.325,0.113 -2.649,0.218 -3.981,0.324 -1.328,0.105 -2.664,0.207 -4.004,0.305 h -0.422 c -2.261,-0.032 -2.543,0.601 -0.84,1.89 3.508,0.91 6.801,0.699 9.875,-0.629 1.196,-1.125 1.547,-2.382 1.051,-3.781 -0.422,-0.141 -0.699,-0.422 -0.84,-0.84 -1.461,-0.832 -2.582,-2.023 -3.363,-3.57 0.285,-1.836 0.567,-3.656 0.84,-5.465 -0.488,-0.769 -1.121,-1.398 -1.891,-1.891 z m -5.281,14.747 c -0.117,0.07 -0.246,0.125 -0.391,0.168 0.145,-0.043 0.274,-0.098 0.391,-0.168 z m 1.27,0.546 c -0.051,0.032 -0.102,0.063 -0.149,0.086 -0.082,0.039 -0.164,0.071 -0.246,0.09 0.082,-0.019 0.164,-0.051 0.246,-0.09 0.047,-0.023 0.098,-0.054 0.149,-0.086 z"
         style="fill:#5e605d;fill-opacity:1;fill-rule:evenodd;stroke:none"
         id="path32" />
      <path
         d="m 157.449,136.641 c 0.137,0 0.278,0 0.418,0 2.68,-0.196 5.34,-0.403 7.985,-0.629 -1.543,0.769 -3.086,1.539 -4.622,2.308 -0.953,-0.183 -1.863,-0.465 -2.734,-0.84 -0.684,0.567 -1.316,0.497 -1.891,-0.21 0.387,-0.118 0.668,-0.325 0.844,-0.629 z"
         style="fill:#000000;fill-opacity:1;fill-rule:evenodd;stroke:none"
         id="path34" />
      <path
         d="m 155.348,126.137 c 0.32,-1.055 0.949,-1.895 1.89,-2.52 1.688,0.375 3.371,0.793 5.039,1.262 0.141,-0.281 0.282,-0.563 0.422,-0.844 0.637,0.891 0.778,1.871 0.422,2.942 -0.84,0.91 -1.82,1.609 -2.941,2.101 -1.067,-0.012 -2.118,-0.082 -3.153,-0.211 -0.894,-0.75 -1.453,-1.66 -1.679,-2.73 z"
         style="fill:#000000;fill-opacity:1;fill-rule:evenodd;stroke:none"
         id="path36" />
      <path
         d="m 159.723,132.414 c -0.336,0.004 -0.676,0.012 -1.016,0.027 -0.141,0.352 -0.422,0.493 -0.84,0.418 -1.476,-0.234 -2.734,0.047 -3.781,0.84 -0.648,0.278 -1.348,0.559 -2.098,0.84 -0.426,0.379 -0.426,0.656 0,0.844 0.926,-0.645 1.977,-0.926 3.149,-0.844 1.34,0.102 2.668,0.242 3.992,0.422 2.531,-0.543 5.121,-0.543 7.769,0 0.434,-0.141 0.645,-0.422 0.633,-0.84 -0.422,-0.141 -0.699,-0.422 -0.84,-0.84 -2.285,-0.59 -4.609,-0.879 -6.968,-0.863 z"
         style="fill:#000000;fill-opacity:1;fill-rule:evenodd;stroke:none"
         id="path38" />
      <path
         d="m 168.789,140.844 c -0.137,0.84 -0.277,1.679 -0.418,2.519 -1.098,-0.093 -1.801,0.395 -2.101,1.469 -1.547,0.121 -2.946,0.609 -4.2,1.473 1.114,0.316 2.235,0.597 3.36,0.84 1.066,-0.536 2.113,-0.676 3.152,-0.422 0.004,3.656 0.074,7.437 0.207,11.343 0,0.84 0,1.68 0,2.524 0,0.277 0,0.558 0,0.84 -1.086,-0.266 -2.066,-0.754 -2.937,-1.473 0.449,-0.723 0.519,-1.496 0.207,-2.309 -2.743,-2.269 -4,-5.21 -3.782,-8.824 -0.488,-0.488 -0.98,-0.98 -1.468,-1.469 -1.461,-0.203 -2.723,-0.761 -3.782,-1.683 2.285,-1.598 4.739,-2.926 7.352,-3.988 0.621,-0.399 1.043,-0.957 1.262,-1.684 1.089,0.625 2.07,0.484 2.941,-0.418 0.203,0.398 0.273,0.816 0.207,1.262 z"
         style="fill:#5e605d;fill-opacity:1;fill-rule:evenodd;stroke:none"
         id="path40" />
      <path
         d="m 195.879,164.965 c -0.957,1.695 -2.27,3.223 -3.781,4.445 -0.938,0.762 -2.09,1.227 -3.192,1.731 -1.754,0.804 -5.41,2.05 -5.41,2.05 0,0 1.434,0.676 2.195,0.633 1.965,-0.113 3.758,-1.273 5.461,-2.265 1.309,-0.762 2.563,-1.75 3.586,-2.797 1.129,-1.149 2.305,-2.278 2.848,-3.797 0.508,-1.43 -0.191,-4.547 -0.191,-4.547 0,0 -0.731,3.156 -1.516,4.547 z"
         style="fill:#5f615e;fill-opacity:1;fill-rule:evenodd;stroke:none"
         id="path42" />
      <path
         d="m 175.934,168.152 3.781,-0.211 2.519,-1.328 3.153,-1.402 3.992,-2.941 1.945,-4.309 0.574,-4.094 -0.421,-3.781 1.05,1.258 0.735,3.125 -0.559,3.832 -1.855,3.129 -1.664,2.195 -6.11,3.684 -4.832,1.683 -1.68,0.418 z"
         style="fill:#5f615e;fill-opacity:1;fill-rule:evenodd;stroke:none"
         id="path44" />
      <path
         d="m 172.57,166.473 c -1.812,0.418 -2.172,-0.375 -3.59,0.418 -0.871,0.488 -0.609,2.941 -0.609,2.941 0.195,0.969 0.754,1.527 1.68,1.68 3.308,0.332 4.429,-1.067 3.363,-4.203 -0.133,-0.411 -0.414,-0.688 -0.844,-0.836 z"
         style="fill:#9a9a9a;fill-opacity:1;fill-rule:evenodd;stroke:none"
         id="path46" />
      <path
         d="m 171.312,167.73 c 0.047,0.258 0.188,0.469 0.418,0.629 -0.582,0.493 -0.933,1.125 -1.05,1.891 -0.512,-0.906 -0.723,-1.746 -0.629,-2.52 0.422,-1.121 0.84,-1.121 1.261,0 z"
         style="fill:#191a19;fill-opacity:1;fill-rule:evenodd;stroke:none"
         id="path48" />
      <path
         d="m 173.414,167.309 c 1.066,3.136 -0.055,4.535 -3.363,4.203 0.773,-0.328 1.613,-0.61 2.519,-0.84 0.141,-0.211 0.282,-0.422 0.422,-0.629 -1.066,-1.07 -0.926,-1.981 0.422,-2.734 z"
         style="fill:#191a19;fill-opacity:1;fill-rule:evenodd;stroke:none"
         id="path50" />
      <path
         d="m 162.91,165.629 4.199,1.262 v 2.101 l 0.84,0.629 -2.097,7.563 0.839,0.839 -0.211,3.993 -1.261,-1.262 0.633,-8.192 0.418,-3.57 z"
         style="fill:#5e605d;fill-opacity:1;fill-rule:evenodd;stroke:none"
         id="path52" />
      <path
         d="m 197.781,124.035 c -0.648,0.086 -1.211,0.367 -1.683,0.844 -0.278,-0.703 -0.559,-1.402 -0.84,-2.102 -0.418,0.282 -0.84,0.559 -1.258,0.84 -0.141,-0.14 -0.281,-0.281 -0.422,-0.422 1.328,-1.359 2.867,-2.269 4.621,-2.73 -0.558,0.703 -1.121,1.402 -1.679,2.101 0.316,0.625 0.668,0.696 1.05,0.211 0.203,0.399 0.274,0.817 0.211,1.258 z"
         style="fill:#fefffe;fill-opacity:1;fill-rule:evenodd;stroke:none"
         id="path54" />
      <path
         d="m 150.375,106.059 c -0.73,0.003 -1.457,0.113 -2.172,0.332 -0.375,0.257 -0.793,0.398 -1.258,0.421 -2.925,1.528 -3.554,3.766 -1.89,6.723 0.547,-0.246 1.035,-0.527 1.468,-0.84 -0.066,-0.007 -0.128,-0.011 -0.187,-0.027 0.059,0.016 0.121,0.02 0.187,0.027 -0.054,-0.312 0.016,-0.593 0.211,-0.843 1.098,2.394 2.571,2.675 4.411,0.843 1.109,1.032 2.093,0.895 2.941,-0.422 1.394,-2.078 1.113,-3.968 -0.84,-5.671 -0.973,-0.364 -1.926,-0.543 -2.871,-0.543 z m 1.395,0.464 c 0.089,0.032 0.183,0.067 0.269,0.102 0.086,0.035 0.172,0.074 0.254,0.113 0.082,0.043 0.16,0.082 0.238,0.129 0.078,0.047 0.153,0.094 0.223,0.145 0.074,0.05 0.141,0.105 0.207,0.16 0.066,0.058 0.133,0.117 0.191,0.18 0.063,0.058 0.121,0.125 0.176,0.191 0.059,0.066 0.113,0.133 0.164,0.203 0.051,0.074 0.098,0.149 0.141,0.223 0.047,0.078 0.09,0.16 0.129,0.242 0.043,0.082 0.082,0.164 0.117,0.25 0.035,0.09 0.066,0.18 0.094,0.269 -0.028,-0.089 -0.059,-0.179 -0.094,-0.269 -0.035,-0.086 -0.074,-0.168 -0.117,-0.25 -0.039,-0.082 -0.082,-0.164 -0.129,-0.242 -0.043,-0.074 -0.09,-0.149 -0.141,-0.223 -0.051,-0.07 -0.105,-0.137 -0.164,-0.203 -0.055,-0.066 -0.113,-0.133 -0.176,-0.191 -0.058,-0.063 -0.125,-0.122 -0.191,-0.18 -0.066,-0.055 -0.133,-0.11 -0.207,-0.16 -0.07,-0.051 -0.145,-0.098 -0.223,-0.145 -0.078,-0.047 -0.156,-0.086 -0.238,-0.129 -0.082,-0.039 -0.168,-0.078 -0.254,-0.113 -0.086,-0.035 -0.18,-0.07 -0.269,-0.102 z m -6.297,5.329 c 0.023,0.066 0.047,0.128 0.074,0.187 0.027,0.059 0.058,0.113 0.09,0.164 -0.032,-0.051 -0.063,-0.105 -0.09,-0.164 -0.027,-0.059 -0.051,-0.121 -0.074,-0.187 z"
         style="fill:#5e605d;fill-opacity:1;fill-rule:evenodd;stroke:none"
         id="path56" />
      <path
         d="m 148.203,106.391 c 4.641,-0.684 6.602,1.277 5.883,5.882 -0.852,1.317 -1.832,1.454 -2.941,0.422 -1.84,1.832 -3.313,1.551 -4.411,-0.843 -0.195,0.25 -0.265,0.531 -0.211,0.843 -0.523,-0.035 -0.875,-0.316 -1.05,-0.843 -0.141,0.14 -0.278,0.281 -0.418,0.421 -0.071,-0.351 -0.141,-0.699 -0.211,-1.05 0.777,-1.446 1.476,-2.918 2.101,-4.411 0.465,-0.023 0.887,-0.164 1.258,-0.421 z"
         style="fill:#000000;fill-opacity:1;fill-rule:evenodd;stroke:none"
         id="path58" />
      <path
         d="m 164.59,58.496 c -1.301,0.289 -2.559,0.707 -3.781,1.262 -0.661,0.875 -1.434,1.715 -2.313,2.519 -0.16,-0.234 -0.371,-0.375 -0.629,-0.418 -1.332,0.594 -2.73,1.016 -4.199,1.258 -0.09,0.809 -0.371,0.949 -0.844,0.422 -0.789,-0.117 -1.347,0.164 -1.679,0.84 0.578,-0.067 1.136,0.004 1.679,0.211 -0.894,0.578 -1.875,1 -2.937,1.258 -0.578,0.722 -1.282,1.281 -2.102,1.683 0.34,0.551 0.762,1.039 1.262,1.469 -0.133,0.34 -0.34,0.617 -0.633,0.84 -1.176,-0.965 -2.297,-0.965 -3.359,0 -0.168,-0.098 -0.239,-0.235 -0.211,-0.418 -0.379,0.332 -0.66,0.75 -0.84,1.258 0.449,1.023 0.172,1.933 -0.84,2.73 -1.094,0.602 -2.144,1.231 -3.152,1.891 -0.203,-0.399 -0.274,-0.817 -0.211,-1.258 -0.84,0.559 -1.539,1.258 -2.102,2.102 0.02,0.527 -0.191,0.945 -0.629,1.257 -0.168,-0.097 -0.238,-0.234 -0.211,-0.422 -0.558,0 -0.839,0.282 -0.839,0.844 0.312,-0.054 0.589,0.012 0.839,0.207 -1.195,1.164 -1.757,2.492 -1.679,3.992 0.351,-0.418 0.699,-0.839 1.05,-1.257 0.02,0.949 -0.332,1.785 -1.05,2.519 1.027,0.621 0.886,1.113 -0.418,1.469 0.754,0.531 1.316,1.23 1.679,2.101 -0.523,0.192 -0.871,-0.019 -1.05,-0.628 -0.168,0.574 -0.379,1.136 -0.629,1.679 1.101,1.278 0.824,1.559 -0.84,0.84 -0.32,3.211 -0.461,6.434 -0.422,9.664 0.293,-0.879 0.715,-1.719 1.262,-2.519 0.648,-0.137 0.929,-0.559 0.84,-1.262 0.621,-0.113 1.179,0.027 1.679,0.418 -0.859,1.312 -1.558,2.715 -2.101,4.203 1.148,0.289 2.129,0.848 2.941,1.68 -0.809,0.34 -1.648,0.55 -2.519,0.632 0.738,0.083 1.437,0.293 2.097,0.629 -0.418,0.278 -0.836,0.559 -1.258,0.84 0.61,0.567 0.887,1.266 0.84,2.098 h -1.261 c -0.067,0.851 0.003,1.695 0.21,2.523 0.676,-0.937 1.45,-1.777 2.313,-2.523 0.719,0.777 1.559,1.34 2.519,1.683 -0.191,-0.402 -0.468,-0.753 -0.839,-1.05 0.281,-0.141 0.558,-0.282 0.839,-0.422 -0.839,-0.278 -1.679,-0.559 -2.519,-0.84 0.102,-0.801 0.102,-1.645 0,-2.52 0.492,-0.175 0.91,-0.457 1.258,-0.839 -0.578,-1.481 -0.16,-2.668 1.261,-3.571 -0.816,-0.746 -0.957,-1.59 -0.417,-2.523 1,0.672 1.488,1.652 1.468,2.941 0.543,-2.351 1.453,-4.593 2.731,-6.722 1.75,-1.645 3.781,-2.204 6.094,-1.68 3.082,-0.488 6.304,-1.188 9.66,-2.102 0.316,0.262 0.664,0.477 1.05,0.633 1.969,0.145 3.93,0.356 5.883,0.629 0.711,-0.094 1.41,-0.234 2.102,-0.422 1.742,0.317 3.351,0.598 4.828,0.844 0.269,1.285 0.762,2.473 1.473,3.57 -2.114,3.02 -2.606,6.309 -1.473,9.871 0.906,1.329 1.957,2.516 3.152,3.571 -0.379,0.519 -0.867,0.871 -1.468,1.054 -2.438,-0.019 -4.887,-0.3 -7.356,-0.843 0.094,0.691 -0.047,1.324 -0.418,1.89 2.188,0.824 4.285,1.801 6.301,2.942 1.133,-0.211 2.254,-0.141 3.363,0.211 0.5,-0.145 0.5,-0.356 0,-0.633 0.91,-0.207 1.258,0.14 1.051,1.051 -0.703,0.519 -1.332,1.082 -1.891,1.683 2.012,-0.019 3.133,-1 3.36,-2.941 3.531,-0.242 5.211,1.437 5.043,5.039 h 1.679 c 0.332,-0.117 0.61,-0.328 0.84,-0.629 -1.324,-2.16 -2.234,-4.469 -2.73,-6.934 -0.723,0.039 -1.492,-0.101 -2.313,-0.418 -0.633,1.106 -0.91,0.965 -0.84,-0.418 0.715,0.067 1.414,-0.004 2.102,-0.211 -1.27,-0.058 -2.391,-0.476 -3.363,-1.261 0.281,-0.141 0.562,-0.282 0.843,-0.422 -0.839,-0.278 -1.683,-0.559 -2.523,-0.84 0.945,-1.328 0.875,-2.52 -0.207,-3.57 -0.281,0.558 -0.563,0.558 -0.844,0 -0.07,-0.352 -0.137,-0.7 -0.207,-1.051 0.742,-1.656 1.586,-3.266 2.52,-4.832 -0.727,-1.801 -1.075,-3.621 -1.051,-5.461 -0.254,-0.832 -0.676,-0.973 -1.262,-0.418 -0.172,-1.047 -0.66,-1.887 -1.469,-2.523 0.786,-0.075 1.625,-0.422 2.52,-1.051 -0.438,-1.539 -1.418,-2.379 -2.938,-2.52 1.125,0.981 0.985,1.188 -0.421,0.629 -2.622,1.414 -5.282,1.836 -7.985,1.262 -2.402,1.223 -4.711,1.082 -6.929,-0.418 -0.36,0.68 -0.778,0.82 -1.262,0.418 -0.586,0.305 -1.219,0.515 -1.891,0.629 -2.137,1.789 -4.59,2.84 -7.351,3.152 -0.282,-0.281 -0.282,-0.562 0,-0.84 0.808,-0.582 1.578,-1.211 2.308,-1.89 -0.219,-0.289 -0.5,-0.504 -0.836,-0.633 -0.769,0.601 -1.613,0.812 -2.523,0.633 -0.695,-1.051 -1.043,-2.098 -1.051,-3.153 -0.141,0.141 -0.281,0.282 -0.418,0.422 -1.019,-0.539 -2.07,-0.961 -3.152,-1.262 v -1.257 c 0.832,-0.051 1.535,0.23 2.101,0.839 0.524,-0.23 1.016,-0.507 1.469,-0.839 1.051,0.617 2.102,1.32 3.152,2.097 0.961,0.301 1.872,0.442 2.731,0.422 0.543,-0.445 1.035,-0.937 1.469,-1.469 -0.168,-0.398 -0.45,-0.679 -0.84,-0.843 1.402,-1.121 2.941,-1.543 4.621,-1.258 -0.141,-0.141 -0.281,-0.281 -0.418,-0.422 0.93,-0.531 1.769,-1.164 2.519,-1.891 1.188,-0.437 2.309,-0.996 3.364,-1.679 1.093,0.109 2.144,0.109 3.148,0 0.625,-1.164 1.324,-2.285 2.102,-3.364 0.66,0.469 1.218,1.032 1.679,1.684 0.141,-0.281 0.282,-0.563 0.422,-0.84 -0.066,0.969 -0.066,1.949 0,2.942 0.528,-0.954 1.02,-1.934 1.469,-2.942 0.551,0.59 0.898,1.293 1.051,2.098 0.453,-1.047 1.015,-2.028 1.679,-2.942 0.559,1.047 1.469,1.539 2.731,1.473 -0.492,0.176 -0.91,0.457 -1.258,0.84 0.399,0.258 0.746,0.187 1.051,-0.211 0.285,0.539 0.215,1.031 -0.211,1.473 0.551,0.078 1.113,0.011 1.68,-0.211 -0.36,0.547 -0.571,1.105 -0.629,1.679 0.301,-0.398 0.648,-0.468 1.047,-0.211 0.523,0.489 0.945,1.047 1.261,1.684 3.25,-0.426 3.321,0.063 0.211,1.469 -0.203,0.398 -0.273,0.816 -0.211,1.261 1.098,-0.269 2.145,-0.269 3.153,0 1.097,-0.937 2.289,-1.566 3.57,-1.89 0.402,0.48 0.262,0.902 -0.418,1.258 1.527,0.265 1.527,0.754 0,1.472 0.789,0.293 0.93,0.711 0.418,1.258 0.258,1.402 0.746,1.543 1.473,0.422 0.465,0.508 0.957,0.508 1.468,0 0.29,0.219 0.5,0.5 0.629,0.84 1.836,-0.508 1.907,-0.297 0.211,0.629 0.211,0.07 0.418,0.14 0.629,0.211 0.906,-0.399 1.821,-0.61 2.735,-0.629 -0.282,0.558 -0.563,1.117 -0.844,1.679 -3.137,0.426 -3.278,1.059 -0.418,1.891 1.336,0.289 2.527,-0.133 3.57,-1.262 0.453,0.661 0.801,1.36 1.051,2.102 -0.039,0.809 -0.457,1.297 -1.262,1.469 0.906,0.05 1.746,-0.09 2.52,-0.418 -0.508,0.73 -1.211,1.152 -2.098,1.261 0.984,0.614 1.899,0.403 2.731,-0.632 1.082,1.054 2.203,2.035 3.359,2.941 0.141,-0.281 0.281,-0.559 0.422,-0.84 0.168,1.66 1.078,2.641 2.73,2.942 0.246,-0.274 0.528,-0.555 0.84,-0.84 -0.473,-0.852 -0.265,-0.992 0.629,-0.422 0.07,-0.211 0.141,-0.418 0.211,-0.629 -0.094,-1.164 -0.652,-2.215 -1.68,-3.152 0.145,-0.5 0.356,-0.5 0.629,0 0.153,-0.805 0.504,-1.504 1.051,-2.098 -0.559,-0.422 -1.121,-0.844 -1.68,-1.262 0.199,-0.41 0.481,-0.761 0.84,-1.051 -0.558,-0.773 -0.488,-0.984 0.211,-0.628 0.121,1.543 0.75,1.89 1.891,1.05 -0.621,-1.027 -1.391,-1.937 -2.313,-2.73 -0.535,0.433 -1.023,0.922 -1.469,1.469 0.192,0.175 0.332,0.382 0.418,0.629 -0.418,0.562 -0.839,0.562 -1.257,0 0.14,-0.278 0.281,-0.559 0.418,-0.84 -1.204,-0.903 -1.485,-2.024 -0.84,-3.36 -1.192,-0.425 -1.75,-1.265 -1.68,-2.523 h -1.262 c -0.07,-0.555 0.071,-1.043 0.422,-1.469 -0.539,-0.289 -1.031,-0.219 -1.472,0.211 -0.348,-0.352 -0.7,-0.703 -1.051,-1.051 0.527,-0.175 0.808,-0.527 0.843,-1.051 0.028,-0.64 -0.25,-1.062 -0.843,-1.261 -0.133,0.652 -0.555,0.933 -1.258,0.844 0.031,-0.602 -0.109,-1.165 -0.422,-1.684 0.348,-0.371 0.77,-0.512 1.262,-0.418 -0.332,-0.379 -0.754,-0.66 -1.262,-0.84 -1.047,0.152 -1.324,-0.129 -0.84,-0.844 -0.551,-1.105 -1.25,-2.086 -2.097,-2.937 0.156,1.43 -0.266,1.64 -1.262,0.629 0.14,-0.141 0.281,-0.281 0.418,-0.422 -0.746,-0.606 -1.586,-1.024 -2.52,-1.258 0.141,-0.141 0.282,-0.281 0.422,-0.422 -1.711,-0.39 -2.832,-1.441 -3.363,-3.148 -0.141,-0.422 -0.418,-0.703 -0.84,-0.844 0.016,0.527 -0.191,0.949 -0.629,1.262 -1.164,-0.481 -1.234,-0.903 -0.211,-1.262 -1.023,-0.574 -2.144,-0.996 -3.359,-1.258 0.234,1.129 -0.047,1.129 -0.844,0 -2.758,-0.668 -5.418,-1.719 -7.98,-3.152 -1.887,-0.32 -3.707,-0.668 -5.461,-1.051 z m 4.199,47.895 c -0.152,-0.5 -0.5,-0.782 -1.047,-0.84 -1.824,0.008 -3.715,0.078 -5.672,0.211 -1.597,0.34 -2.925,1.109 -3.992,2.308 -0.281,0.563 -0.281,1.121 0,1.684 1.27,1.711 2.883,3.043 4.832,3.988 0.969,0.211 1.949,0.281 2.942,0.211 v -1.258 c -1.012,1.024 -2.129,1.094 -3.364,0.207 -1.621,-0.988 -2.879,-2.32 -3.781,-3.988 0.984,-1.824 2.523,-2.805 4.621,-2.941 1.36,-0.161 2.688,0.121 3.992,0.839 0.426,-0.351 0.914,-0.492 1.469,-0.421 z"
         style="fill:#5e605d;fill-opacity:1;fill-rule:evenodd;stroke:none"
         id="path60" />
      <path
         d="m 96.172,220.551 h 41.734 c 0.449,-4.567 0.375,-9.113 -0.222,-13.645 -2.77,-9.582 -6.039,-18.98 -9.821,-28.199 -3.101,-4.348 -6.523,-8.441 -10.261,-12.281 -3.422,-5.074 -6.918,-10.078 -10.489,-15.008 0.848,-0.461 1.742,-0.535 2.676,-0.227 1.215,1.071 2.555,1.907 4.02,2.5 0.183,0.329 0.484,0.555 0.89,0.684 4.059,0.133 7.625,-1.16 10.711,-3.867 0.426,-0.207 0.801,-0.512 1.117,-0.91 0.176,-1.231 0.399,-2.446 0.668,-3.641 0.137,-1.312 -0.011,-2.523 -0.445,-3.637 v -4.547 c -0.754,-2.687 -1.129,-5.414 -1.117,-8.187 0.156,-0.766 0.601,-1.219 1.34,-1.363 2.64,0.726 4.203,-0.332 4.683,-3.184 -0.609,-2.074 -1.945,-3.363 -4.015,-3.867 -0.336,-0.305 -0.485,-0.684 -0.446,-1.137 h 2.231 c 1.496,-0.015 2.687,-0.621 3.57,-1.82 0.387,-1.008 0.535,-2.07 0.445,-3.184 0.121,-0.855 -0.175,-1.461 -0.89,-1.82 -2.805,-4.07 -5.781,-8.012 -8.926,-11.824 0.82,-1.223 1.266,-2.586 1.34,-4.094 -1.34,0.152 -1.934,-0.457 -1.785,-1.82 0.593,-0.305 1.039,-0.758 1.34,-1.364 0.714,-0.359 1.011,-0.964 0.89,-1.82 -2.344,-5.406 -4.648,-10.863 -6.918,-16.375 -1.804,-1.609 -3.367,-3.43 -4.683,-5.457 0.07,-1.977 0,-3.945 -0.227,-5.91 -0.168,-0.254 -0.391,-0.406 -0.668,-0.457 -0.488,-1.332 -1.379,-2.317 -2.676,-2.957 -1.535,-0.934 -3.172,-1.613 -4.91,-2.047 -4.164,-0.606 -8.332,-0.606 -12.496,0 -0.863,-0.293 -1.754,-0.445 -2.676,-0.453 h -6.25 c -1.172,0.269 -2.359,0.422 -3.566,0.453 h -2.235 c -3.035,0.789 -5.863,2.078 -8.48,3.867 -0.762,0.625 -1.359,1.387 -1.785,2.274 -1.637,0.152 -3.27,0.304 -4.906,0.457 -0.481,0.386 -0.926,0.765 -1.34,1.136 -2.739,1.489 -4.524,3.762 -5.356,6.821 -1.273,2.91 -2.312,5.941 -3.125,9.097 -0.437,2.184 -1.109,4.305 -2.008,6.367 -0.375,4.118 -0.226,8.211 0.45,12.282 2.347,6.121 4.429,12.336 6.246,18.648 1.996,4.195 3.855,8.442 5.578,12.735 v 1.82 c -0.418,0.703 -0.715,1.461 -0.891,2.273 -1.347,-0.074 -2.687,0 -4.019,0.227 l -0.668,0.683 c -1.567,5.461 -3.723,10.614 -6.473,15.461 -0.082,-0.011 -0.16,-0.019 -0.23,-0.019 -0.317,0.008 -0.536,0.168 -0.66,0.476 -1.157,0.418 -2.047,1.176 -2.68,2.274 -0.809,0.734 -1.403,1.644 -1.781,2.73 -0.539,0.196 -0.989,0.5 -1.34,0.907 -1.926,1.972 -3.871,3.949 -5.809,5.921 10.43,25.657 31.281,45.661 57.344,55.028 z"
         style="fill:#000000;fill-opacity:1;fill-rule:nonzero;stroke:none"
         id="path62" />
      <path
         d="m 86.621,216.664 c -1.121,-2.402 -2.301,-4.762 -3.605,-7.027 1.086,0.687 2.054,0.535 2.902,-0.457 0.137,0.367 0.359,0.672 0.668,0.91 0,-0.926 0.148,-1.836 0.445,-2.731 0.004,-0.687 0.301,-1.218 0.895,-1.589 -1.785,-0.305 -1.785,-0.606 0,-0.911 -0.465,-0.734 -0.985,-0.812 -1.563,-0.226 v -1.821 c -0.187,0.208 -0.41,0.36 -0.672,0.458 -2.082,-0.832 -3.718,-2.2 -4.906,-4.098 1.375,-1.551 1.078,-2.461 -0.894,-2.727 v -2.273 c -2.028,0.074 -2.176,-0.227 -0.446,-0.91 -1.84,-2.032 -2.883,-4.305 -3.125,-6.821 0.215,-0.445 0.512,-0.828 0.895,-1.14 -0.301,-0.153 -0.598,-0.301 -0.895,-0.453 0.426,-0.328 0.5,-0.707 0.223,-1.137 -0.41,-0.195 -0.781,-0.348 -1.117,-0.457 0.597,-0.606 0.597,-1.211 0,-1.82 -0.559,-0.399 -1.082,-0.852 -1.559,-1.364 -0.332,0.52 -0.703,0.52 -1.117,0 -0.371,-0.453 -0.742,-0.91 -1.113,-1.363 -0.449,0.152 -0.895,0.305 -1.34,0.453 -0.617,-1.949 -1.438,-3.543 -2.457,-4.773 0.301,-0.305 0.598,-0.61 0.894,-0.91 -1.035,-0.625 -2.078,-0.778 -3.125,-0.457 -0.148,-0.454 -0.297,-0.911 -0.445,-1.364 0.652,-0.191 0.871,-0.57 0.668,-1.136 -0.562,0.062 -1.082,0.062 -1.562,0 1.164,-1.395 0.867,-1.848 -0.891,-1.364 -0.742,-0.91 -1.488,-1.82 -2.231,-2.73 -0.336,0.398 -0.558,0.855 -0.668,1.363 -0.558,-0.68 -1.007,-1.437 -1.339,-2.273 -0.141,0.82 -0.442,0.972 -0.895,0.457 -0.215,-0.434 -0.289,-0.887 -0.223,-1.368 -0.355,0.665 -0.582,1.418 -0.668,2.274 -0.601,-1.016 -1.273,-1.621 -2.007,-1.817 0.547,-0.496 0.918,-1.101 1.113,-1.82 0.469,1.696 0.691,1.543 0.672,-0.453 -0.735,-0.012 -1.328,0.293 -1.785,0.91 -0.336,-0.398 -0.559,-0.855 -0.672,-1.367 -0.781,0.906 -1.227,1.969 -1.34,3.184 -0.375,-1.196 -0.152,-2.258 0.672,-3.184 -0.149,-0.453 -0.446,-0.758 -0.895,-0.91 -0.355,0.719 -0.578,1.476 -0.668,2.277 -0.336,-1.035 -0.265,-2.019 0.223,-2.957 L 52,160.059 c -0.742,3.562 -1.34,3.41 -1.785,-0.454 -0.453,0.54 -0.977,0.993 -1.563,1.364 -0.308,-0.239 -0.531,-0.543 -0.668,-0.91 -0.816,0.527 -1.558,1.132 -2.234,1.82 -0.93,-0.676 -1.301,-1.438 -1.113,-2.274 -1.926,1.969 -3.871,3.946 -5.809,5.918 1.457,3.563 3.121,7.036 4.988,10.399 0.051,0.016 0.098,0.047 0.153,0.055 0.593,-0.301 1.039,-0.758 1.336,-1.364 0.531,0.856 0.976,1.766 1.34,2.731 0.171,-0.422 0.468,-0.727 0.89,-0.91 1.016,0.441 1.906,1.046 2.68,1.82 0.586,-0.672 1.035,-1.43 1.34,-2.277 0.914,0.711 1.586,1.621 2.007,2.73 0.598,-0.637 0.969,-0.484 1.114,0.457 0.527,-1.715 1.047,-1.641 1.562,0.227 0.559,0.207 0.926,-0.024 1.117,-0.684 0.602,1.105 1.418,1.484 2.454,1.137 0.523,0.832 1.191,1.515 2.007,2.047 0.954,-0.621 1.176,-0.469 0.672,0.453 0.512,0.562 1.032,0.562 1.559,0 0.09,0.601 0.015,1.207 -0.223,1.82 -0.469,-0.066 -0.914,0.008 -1.336,0.227 0.594,0.304 0.594,0.605 0,0.91 0.563,0.422 1.157,0.801 1.782,1.14 -0.075,0.149 -0.145,0.301 -0.223,0.454 -0.617,-0.481 -1.285,-0.555 -2.008,-0.227 0.535,0.297 0.535,0.523 0,0.68 -0.906,-0.598 -1.797,-0.598 -2.676,0 -0.465,0.59 -0.984,0.59 -1.562,0 -0.403,0.547 -0.922,0.925 -1.563,1.136 0.321,0.575 0.692,1.102 1.117,1.594 -0.035,-0.562 0.04,-1.019 0.223,-1.363 0.297,0.148 0.594,0.301 0.891,0.453 0.371,2.391 1.711,3.906 4.019,4.547 -0.586,0.344 -0.808,0.801 -0.672,1.367 0.805,-0.102 1.622,-0.254 2.454,-0.457 0.398,0.375 0.546,0.832 0.449,1.367 1.074,-0.168 1.746,0.285 2.008,1.363 0.675,-1.117 1.269,-1.117 1.785,0 0.82,-0.609 1.043,-0.531 0.668,0.227 0.621,0.465 1.289,0.844 2.008,1.137 0.394,1.183 1.066,2.168 2.007,2.957 0.575,0.312 1.094,0.234 1.563,-0.227 0.726,0.598 0.652,1.207 -0.223,1.821 0.488,1.312 1.383,2.218 2.68,2.726 0.508,0.422 0.508,0.801 0,1.137 2.754,1.933 4.984,4.359 6.691,7.277 l -0.445,0.457 c 0.039,0.047 0.082,0.09 0.121,0.137 1,0.57 2.016,1.125 3.039,1.66 z"
         style="fill:#5d5f5c;fill-opacity:1;fill-rule:evenodd;stroke:none"
         id="path64" />
      <path
         d="m 125.41,92.289 c -0.523,0.461 -0.82,1.066 -0.894,1.82 0.718,-0.359 1.015,-0.964 0.894,-1.82 z m -0.894,1.82 c -0.891,0 -1.336,0.453 -1.336,1.364 0.593,-0.305 1.039,-0.758 1.336,-1.364 z m -1.336,1.364 c -1.246,2.054 -1.094,4.027 0.445,5.914 0.82,-1.223 1.266,-2.586 1.336,-4.094 -1.336,0.152 -1.93,-0.457 -1.781,-1.82 z"
         style="fill:#5f615e;fill-opacity:1;fill-rule:evenodd;stroke:none"
         id="path66" />
      <path
         d="m 77.66,161.879 c 1.11,0.734 2.301,1.418 3.57,2.047 -0.445,0.152 -0.894,0.301 -1.339,0.453 0.785,0.094 1.527,0.32 2.23,0.683 0.008,0.731 -0.062,1.489 -0.223,2.274 0.477,-0.313 0.997,-0.543 1.563,-0.684 -1.117,-0.644 -0.969,-1.097 0.445,-1.363 -0.422,-0.328 -0.496,-0.707 -0.222,-1.137 0.519,0.532 1.043,1.063 1.562,1.594 -1.129,0.301 -1.129,0.68 0,1.137 0.797,-0.629 1.692,-1.082 2.676,-1.367 0.605,0.691 1.199,0.996 1.785,0.91 -0.891,0.379 -1.785,0.758 -2.676,1.136 0.535,0.297 0.535,0.528 0,0.684 -0.937,-0.918 -1.976,-1.07 -3.125,-0.457 0.403,0.078 0.848,0.231 1.34,0.457 -0.402,0.965 -1,1.117 -1.785,0.453 -0.535,0.16 -0.535,0.387 0,0.684 -0.809,-0.02 -1.551,0.055 -2.231,0.226 0.391,0.344 0.836,0.571 1.34,0.684 -1.429,0.449 -2.691,0.223 -3.797,-0.684 -0.578,0.586 -1.097,0.508 -1.558,-0.226 1.125,-0.305 1.125,-0.684 0,-1.137 -0.262,0.094 -0.485,0.246 -0.672,0.453 -0.52,-0.531 -1.039,-1.058 -1.563,-1.59 0.301,-0.152 0.598,-0.304 0.895,-0.457 -1.059,-0.988 -2.102,-1.972 -3.125,-2.953 0.492,0.067 1.086,-0.086 1.785,-0.457 0.684,0.012 1.203,0.317 1.563,0.91 0.218,-0.476 0.144,-0.933 -0.223,-1.363 0.344,-0.551 0.715,-0.551 1.117,0 0.317,-0.25 0.543,-0.551 0.668,-0.91 z"
         style="fill:#585a57;fill-opacity:1;fill-rule:evenodd;stroke:none"
         id="path68" />
      <path
         d="m 108.004,62.727 c 0.691,0.933 1.137,0.933 1.34,0 1.215,-0.286 1.808,0.32 1.785,1.82 0.715,0.121 1.309,-0.031 1.785,-0.457 0.277,0.051 0.5,0.203 0.668,0.457 0.223,1.965 0.301,3.933 0.227,5.91 -0.293,-0.269 -0.59,-0.57 -0.895,-0.91 -0.262,0.098 -0.484,0.25 -0.668,0.457 -0.535,-0.426 -1.129,-0.727 -1.785,-0.91 -0.981,0.062 -1.949,0.062 -2.902,0 -0.743,0.304 -1.489,0.605 -2.231,0.91 -3.879,-1.274 -7.969,-2.336 -12.273,-3.184 -1.653,0.618 -3.285,1.223 -4.907,1.817 -0.523,-0.075 -1.043,-0.149 -1.562,-0.227 0.648,-0.191 0.871,-0.57 0.668,-1.137 -0.902,0.223 -1.871,0.223 -2.899,0 -0.343,-0.347 -0.789,-0.574 -1.339,-0.683 1.05,-1.184 2.168,-1.106 3.347,0.23 0.446,-0.609 0.891,-0.609 1.336,0 0.293,-1.011 0.961,-1.543 2.008,-1.593 -0.508,-0.336 -0.508,-0.715 0,-1.137 -2.355,-1.098 -2.281,-1.555 0.227,-1.363 0.398,-0.852 1.07,-1.305 2.007,-1.368 1.434,0.661 2.625,1.645 3.571,2.957 0.742,0.153 1.484,0.305 2.23,0.457 0.586,0.317 0.961,0.696 1.113,1.137 1.618,-0.183 2.809,-0.64 3.571,-1.363 0.496,0.035 0.941,0.187 1.34,0.453 0.277,-0.434 0.203,-0.812 -0.223,-1.137 1.125,-0.406 2.094,-0.179 2.902,0.684 0.149,-0.707 -0.078,-1.313 -0.672,-1.82 0.711,-0.426 1.457,-0.426 2.231,0 z"
         style="fill:#626461;fill-opacity:1;fill-rule:evenodd;stroke:none"
         id="path70" />
      <path
         d="m 78.105,59.086 c -0.718,0.609 -0.941,1.367 -0.667,2.273 0.148,-0.148 0.296,-0.3 0.445,-0.453 0.668,1.028 1.414,1.028 2.23,0 0.578,0.59 1.399,1.121 2.457,1.594 -0.363,0.137 -0.66,0.367 -0.894,0.68 0.5,-0.043 0.945,0.183 1.34,0.683 -0.348,1.086 -0.868,2.071 -1.563,2.957 -0.297,-0.304 -0.594,-0.609 -0.894,-0.91 -1.914,1.5 -3.7,1.5 -5.352,0 -0.625,0.328 -1.297,0.559 -2.012,0.68 -0.453,0.48 -0.527,1.012 -0.222,1.594 0.507,-0.504 0.879,-0.352 1.117,0.453 -0.844,0.414 -1.66,0.867 -2.453,1.367 -0.149,-0.606 -0.301,-1.215 -0.449,-1.82 -0.387,1.957 -0.833,2.109 -1.336,0.453 -1.204,1.078 -1.352,2.14 -0.45,3.187 0.469,-0.465 0.993,-0.539 1.563,-0.23 -0.891,0.609 -1.785,1.215 -2.676,1.82 -0.336,0.305 -0.484,0.684 -0.445,1.137 0.672,-0.559 1.34,-0.559 2.008,0 0.148,-0.453 0.296,-0.91 0.445,-1.363 1.269,0.343 2.312,-0.114 3.125,-1.364 0.226,0.68 0,1.211 -0.672,1.59 -0.742,0.453 -1.488,0.91 -2.23,1.363 0.148,0.153 0.296,0.305 0.445,0.457 1.055,-0.043 2.023,-0.422 2.902,-1.136 0.297,0.3 0.594,0.605 0.891,0.91 0.726,-0.36 1.394,-0.817 2.008,-1.367 0.183,0.347 0.257,0.8 0.226,1.367 1.446,-0.586 2.637,-1.496 3.567,-2.731 0.3,0.453 0.3,0.911 0,1.364 -0.856,0.781 -1.825,1.386 -2.899,1.82 2.051,-0.012 3.91,-0.77 5.578,-2.273 0.168,0.414 0.391,0.796 0.668,1.136 -1.82,1.231 -3.754,2.289 -5.801,3.184 1.02,0.133 1.989,-0.094 2.903,-0.684 0.875,0.36 1.543,0.969 2.008,1.821 0.261,-0.094 0.484,-0.247 0.668,-0.454 0.32,0.731 0.246,1.414 -0.223,2.047 0.894,0.606 1.562,1.289 2.008,2.047 -0.27,1.274 0.176,2.336 1.34,3.184 0.109,-0.512 0.332,-0.969 0.668,-1.367 0.543,0.351 0.543,0.73 0,1.136 0.425,0.282 0.796,0.207 1.117,-0.226 0.187,0.535 0.484,0.988 0.89,1.363 0.625,-0.598 1.071,-0.445 1.34,0.457 0.793,-1.262 1.242,-1.113 1.34,0.453 0.969,-0.23 2.008,-0.23 3.121,0 0.574,-0.203 1.098,-0.508 1.563,-0.91 1.183,1.078 2.449,1.988 3.793,2.73 1,-0.335 1.89,-0.335 2.679,0 0.086,1.075 0.61,1.833 1.563,2.274 -0.094,0.266 -0.242,0.496 -0.449,0.683 1.543,0.333 2.289,1.317 2.234,2.958 1.73,-0.028 3.516,0.125 5.355,0.453 2.098,-0.418 4.032,-1.024 5.801,-1.821 2.606,1.516 3.352,3.715 2.231,6.598 0.332,0.812 0.629,1.645 0.89,2.5 -0.773,1.164 -1.441,2.379 -2.007,3.641 -0.622,-0.922 -1.364,-1.075 -2.231,-0.457 -0.297,-0.606 -0.594,-1.211 -0.891,-1.821 -0.148,0.153 -0.3,0.305 -0.449,0.457 -1.09,-0.64 -2.203,-1.246 -3.344,-1.82 -0.394,0.574 -0.839,1.105 -1.339,1.594 0.941,0.164 1.832,0.465 2.675,0.91 -1.718,0.16 -3.504,0.465 -5.355,0.906 0.535,0.301 0.535,0.528 0,0.684 -0.297,-0.153 -0.594,-0.305 -0.891,-0.453 -0.535,0.156 -0.535,0.382 0,0.679 -0.984,0.77 -1.804,0.696 -2.453,-0.226 -0.625,0.734 -1.293,1.414 -2.008,2.047 1.672,1.554 3.383,2.996 5.129,4.32 0.149,-0.152 0.301,-0.301 0.449,-0.453 0.661,0.34 0.739,0.719 0.223,1.137 0.336,0.675 0.707,0.75 1.113,0.226 0.184,1.555 0.926,2.766 2.231,3.641 0.152,-0.153 0.301,-0.305 0.449,-0.457 0.738,1.363 1.856,2.195 3.348,2.5 -0.414,0.179 -0.715,0.48 -0.895,0.91 0.399,0.637 0.696,1.32 0.895,2.047 -0.696,1.136 -1.067,2.351 -1.117,3.64 0.582,-1.09 1.031,-1.09 1.339,0 0.727,-0.558 1.399,-1.164 2.008,-1.82 -0.094,-0.266 -0.242,-0.492 -0.445,-0.684 0.594,-0.3 1.039,-0.757 1.336,-1.363 -0.719,-1.078 -1.168,-2.289 -1.336,-3.637 0.609,-2.48 1.871,-4.527 3.793,-6.14 0.668,0.226 1.336,0.453 2.008,0.68 -1.098,0.179 -1.989,0.71 -2.68,1.593 0.543,0.821 0.988,1.578 1.34,2.274 0.308,-0.239 0.531,-0.543 0.668,-0.91 0.461,0.917 1.203,1.371 2.234,1.367 1.625,-0.364 3.262,-0.668 4.906,-0.91 1.317,0.027 2.434,0.48 3.348,1.363 -0.883,1.199 -2.074,1.805 -3.57,1.82 -0.047,-0.855 0.176,-1.008 0.668,-0.457 0.226,-0.226 0.449,-0.453 0.672,-0.68 -1.313,0.004 -2.575,-0.07 -3.793,-0.23 -2.707,0.477 -5.309,1.008 -7.809,1.594 0.66,0.445 1.254,0.976 1.781,1.59 0.235,1.281 0.606,2.496 1.117,3.64 0.219,-1.586 0.891,-1.812 2.008,-0.683 -0.277,1.273 -0.574,2.562 -0.89,3.867 -0.301,-0.153 -0.598,-0.305 -0.895,-0.453 -0.668,0.566 -1.414,1.023 -2.23,1.363 -0.336,-0.398 -0.559,-0.856 -0.668,-1.363 -1.297,2.199 -0.778,3.414 1.558,3.636 0.313,-1.382 1.207,-2.14 2.68,-2.273 0.586,-0.531 0.883,-1.215 0.891,-2.047 -0.266,-1.234 -0.414,-2.445 -0.446,-3.641 1.692,-0.632 2.36,-1.769 2.008,-3.41 0.301,-0.34 0.672,-0.492 1.117,-0.453 -0.039,0.453 0.11,0.832 0.446,1.137 2.07,0.504 3.406,1.793 4.015,3.863 -0.48,2.856 -2.039,3.918 -4.683,3.188 -0.739,0.144 -1.184,0.597 -1.34,1.363 -0.012,2.773 0.363,5.5 1.117,8.187 -0.543,-0.332 -0.988,-0.789 -1.34,-1.367 -0.18,0.481 -0.18,1.09 0,1.821 0.445,0 0.891,0 1.34,0 0,1.214 0,2.425 0,3.64 -0.438,-0.144 -0.734,-0.445 -0.895,-0.91 0.512,-0.422 0.512,-0.801 0,-1.137 -1.05,0.078 -2.019,0.153 -2.898,0.227 -0.219,1.539 0.305,2.75 1.559,3.637 -0.309,1.23 -0.012,2.367 0.894,3.414 -0.422,0.218 -0.871,0.293 -1.34,0.226 0.094,1.246 0.539,2.309 1.34,3.184 -3.086,2.711 -6.656,3.996 -10.711,3.867 -0.41,-0.129 -0.707,-0.355 -0.89,-0.684 1.144,-0.043 2.257,-0.195 3.343,-0.453 0.149,0.301 0.301,0.606 0.45,0.907 0.988,-1.004 1.957,-2.067 2.898,-3.184 -2.23,-1.438 -4.758,-2.727 -7.586,-3.863 0.223,-0.231 0.445,-0.457 0.668,-0.684 2.18,2.078 2.773,1.774 1.785,-0.91 -1.312,-0.426 -2.578,-0.879 -3.793,-1.363 -0.328,-0.059 -0.625,0.015 -0.89,0.226 1.019,0.621 1.093,1.301 0.222,2.047 -0.594,-0.91 -1.191,-1.82 -1.785,-2.73 -0.148,0.304 -0.297,0.609 -0.445,0.91 -0.938,-0.649 -1.906,-1.254 -2.903,-1.821 -0.074,0.411 -0.222,0.864 -0.445,1.368 -1.269,-1.079 -2.609,-1.989 -4.016,-2.731 0.071,-0.922 -0.003,-1.832 -0.222,-2.726 -0.149,0.148 -0.301,0.3 -0.449,0.453 -0.11,-0.512 -0.332,-0.965 -0.668,-1.364 -0.274,1.348 -0.942,2.411 -2.008,3.184 -0.707,-1.051 -1.602,-1.355 -2.68,-0.91 0,-0.606 0,-1.215 0,-1.82 -0.148,0.152 -0.297,0.304 -0.445,0.457 -0.942,-1.102 -1.836,-1.102 -2.676,0 -0.496,-0.575 -0.57,-1.106 -0.223,-1.594 -1.882,-1.16 -3.296,-2.754 -4.242,-4.778 -0.199,-1.593 0.321,-1.824 1.563,-0.679 -0.297,0.152 -0.594,0.301 -0.891,0.453 1.676,1.035 2.199,0.504 1.563,-1.59 -0.149,0.149 -0.301,0.301 -0.45,0.453 -0.476,-0.312 -0.996,-0.543 -1.562,-0.679 0.672,-0.571 1.414,-1.028 2.234,-1.368 -0.926,-0.148 -1.074,-0.527 -0.449,-1.136 -0.547,-0.356 -1.141,-0.582 -1.785,-0.684 0.144,-0.926 0.219,-1.914 0.226,-2.953 0.207,0.793 0.508,1.551 0.891,2.273 0.297,-1.214 0.594,-1.214 0.895,0 0.609,-1.644 0.535,-3.16 -0.227,-4.55 0.234,-0.313 0.535,-0.54 0.895,-0.68 -0.282,-0.344 -0.504,-0.723 -0.668,-1.137 -0.45,1.067 -1.122,1.746 -2.012,2.047 0.922,-1.144 1.594,-2.434 2.012,-3.867 0.535,0.258 1.058,0.562 1.558,0.91 -0.09,0.266 -0.242,0.492 -0.445,0.68 0.535,0.414 0.91,0.941 1.117,1.593 0.668,-0.73 0.742,-1.488 0.223,-2.273 0.343,-0.551 0.715,-0.551 1.117,0 0.094,-0.594 0.016,-1.199 -0.227,-1.82 0.106,-0.653 0.403,-0.879 0.895,-0.684 -0.149,0.152 -0.297,0.305 -0.445,0.457 0.75,2.426 1.199,4.926 1.335,7.504 0.735,0.008 1.329,-0.293 1.786,-0.91 0.449,0.605 0.894,1.215 1.34,1.82 0.55,-0.523 0.55,-1.054 0,-1.594 0.296,-0.3 0.593,-0.3 0.894,0 0.656,1.508 1.027,3.102 1.113,4.778 0.172,-1.156 0.543,-2.219 1.117,-3.184 -0.722,-1.633 -0.574,-3.148 0.446,-4.547 -0.094,-1.906 -0.985,-3.121 -2.676,-3.64 0.066,-0.477 -0.008,-0.934 -0.227,-1.364 -1.406,-0.586 -2.593,-1.496 -3.57,-2.73 -0.305,0.391 -0.676,0.691 -1.113,0.91 -0.684,-1.476 -1.504,-1.629 -2.453,-0.453 -0.457,-0.551 -0.68,-0.398 -0.672,0.453 0.512,1.027 0.734,2.09 0.672,3.184 -0.453,-0.379 -0.973,-0.532 -1.563,-0.453 0,-0.61 0,-1.215 0,-1.821 -0.59,-0.078 -1.113,0.074 -1.562,0.453 -0.446,-0.605 -0.895,-1.211 -1.34,-1.816 -0.242,-0.746 -0.016,-1.352 0.668,-1.82 -2.453,-3.036 -3.719,-6.524 -3.793,-10.461 -0.149,-0.153 -0.297,-0.305 -0.445,-0.457 -0.258,2.332 -0.704,2.332 -1.34,0 -0.297,0.304 -0.594,0.609 -0.891,0.91 -0.141,-0.934 -0.363,-1.844 -0.668,-2.727 -0.347,-0.551 -0.719,-0.551 -1.117,0 -0.176,-1.754 0.566,-2.968 2.23,-3.64 0.438,-0.571 0.586,-1.18 0.446,-1.821 -0.68,0.563 -1.203,1.243 -1.559,2.047 -0.426,0.281 -0.797,0.207 -1.117,-0.226 -0.277,1.152 -0.723,2.215 -1.34,3.183 -0.148,-0.605 -0.297,-1.211 -0.445,-1.82 -0.125,1.086 -0.574,1.391 -1.34,0.91 -0.137,0.367 -0.359,0.672 -0.668,0.91 0.086,-0.539 -0.137,-1.144 -0.668,-1.82 -0.676,0.777 -1.344,1.535 -2.012,2.277 -0.539,-0.351 -0.539,-0.73 0,-1.136 -1.543,0.332 -1.691,-0.122 -0.445,-1.368 -0.426,-1.222 -0.129,-1.375 0.895,-0.453 -0.426,0.324 -0.5,0.703 -0.223,1.137 0.543,-0.578 0.914,-1.262 1.113,-2.047 -0.219,-1.238 -0.742,-1.922 -1.562,-2.047 -0.239,1.078 -0.758,1.989 -1.563,2.731 0.094,0.265 0.242,0.492 0.449,0.679 -0.722,0.282 -1.316,0.735 -1.785,1.368 0.973,0.273 1.047,0.804 0.223,1.589 -0.707,0.559 -1.305,0.407 -1.785,-0.453 -0.324,1.571 -1.293,2.328 -2.903,2.274 0.118,0.672 -0.031,1.277 -0.445,1.82 -0.672,-1.926 -0.523,-3.746 0.445,-5.461 -0.39,-0.34 -0.836,-0.566 -1.336,-0.68 0.379,-0.316 0.68,-0.695 0.891,-1.136 -0.152,-0.547 -0.379,-0.547 -0.668,0 -0.297,-0.91 -0.297,-1.821 0,-2.731 0.707,-0.398 1.375,-0.851 2.008,-1.363 -0.785,-0.57 -1.457,-0.422 -2.008,0.453 0.16,-1.309 0.086,-2.598 -0.223,-3.867 0.879,-3.809 1.477,-3.883 1.786,-0.227 0.597,-0.621 1.191,-1.226 1.785,-1.82 -0.086,-0.727 0.136,-1.332 0.668,-1.816 0.148,0.3 0.297,0.605 0.445,0.91 1.285,-0.324 2.254,-1.082 2.902,-2.278 -0.222,-0.453 -0.449,-0.906 -0.671,-1.363 -1.016,1.813 -1.461,1.813 -1.336,0 -0.477,0.313 -1,0.543 -1.563,0.684 0.297,0.152 0.594,0.3 0.891,0.453 -0.817,0.226 -1.336,0.758 -1.563,1.594 -0.824,-2.266 -0.523,-4.235 0.895,-5.914 0.148,0.304 0.297,0.605 0.445,0.91 0.855,-0.996 1.453,-2.059 1.785,-3.184 -0.676,0.344 -1.269,0.797 -1.785,1.363 -0.184,-0.207 -0.406,-0.359 -0.668,-0.453 -0.383,0.465 -0.828,0.844 -1.34,1.137 0.149,0.152 0.297,0.301 0.446,0.453 -0.446,0.227 -0.891,0.457 -1.336,0.684 -1.454,-0.598 -2.571,-0.141 -3.348,1.363 -0.149,-0.301 -0.297,-0.606 -0.449,-0.91 -1.114,-0.02 -2.004,0.586 -2.676,1.82 -0.148,-0.453 -0.297,-0.91 -0.445,-1.363 -0.598,0.574 -1.266,0.801 -2.008,0.68 0.984,-1.356 0.762,-1.43 -0.672,-0.227 -0.109,-0.512 -0.332,-0.965 -0.668,-1.363 -1.301,0.972 -2.195,2.035 -2.676,3.183 0.809,-3.156 1.848,-6.187 3.121,-9.097 -0.027,0.199 0.047,0.351 0.223,0.457 0.609,-0.649 1.277,-1.028 2.008,-1.137 -0.297,-0.305 -0.594,-0.609 -0.891,-0.91 0.684,-0.321 1.129,-0.852 1.34,-1.594 0.566,-0.519 1.164,-0.519 1.785,0 0.449,-0.199 0.449,-0.5 0,-0.91 0.688,-0.434 1.434,-0.582 2.231,-0.453 0.429,-1.156 1.175,-2.145 2.23,-2.957 -1.266,-0.149 -2.453,0.078 -3.57,0.683 0.414,-0.371 0.863,-0.75 1.34,-1.136 1.636,-0.153 3.273,-0.305 4.91,-0.457 0.422,-0.887 1.019,-1.649 1.785,-2.274 2.613,-1.789 5.441,-3.078 8.476,-3.867 z"
         style="fill:#5e605d;fill-opacity:1;fill-rule:evenodd;stroke:none"
         id="path72" />
      <path
         d="m 121.84,220.551 c -1.34,0 -2.676,0 -4.016,0 0.145,-1.012 -0.156,-1.844 -0.894,-2.5 0.148,-0.153 0.297,-0.305 0.449,-0.457 -1.16,-0.516 -2.352,-0.895 -3.57,-1.137 0,-0.605 0,-1.211 0,-1.82 -0.965,-0.149 -1.786,-0.602 -2.457,-1.364 -0.137,0.567 0.086,1.02 0.671,1.364 -0.226,0.465 -0.523,0.543 -0.894,0.23 -0.102,-1.301 -0.695,-2.441 -1.785,-3.414 0.347,-0.551 0.718,-0.551 1.117,0 0.176,-1.109 -0.195,-1.414 -1.117,-0.91 -0.485,-0.527 -0.856,-1.133 -1.114,-1.816 -0.148,0.3 -0.3,0.605 -0.449,0.91 -0.367,-1.043 -0.664,-2.106 -0.89,-3.184 -0.149,0.453 -0.297,0.906 -0.446,1.363 -0.324,-0.734 -0.25,-1.418 0.223,-2.046 1.394,-0.817 2.582,-0.516 3.57,0.91 -0.148,0.152 -0.3,0.3 -0.449,0.453 2.84,1.988 5.664,3.957 8.481,5.914 2.609,1.902 3.796,4.406 3.57,7.504 z"
         style="fill:#5e5f5d;fill-opacity:1;fill-rule:evenodd;stroke:none"
         id="path74" />
      <path
         d="m 104.883,159.605 c 0.863,2.692 1.086,5.422 0.668,8.184 2.062,-0.691 3.398,0.066 4.015,2.277 0.207,-0.273 0.282,-0.574 0.223,-0.91 0.363,0.813 0.586,1.723 0.672,2.727 1.078,0.523 2.047,1.203 2.898,2.047 -0.367,0.418 -0.812,0.718 -1.336,0.91 4.571,5.414 8.215,11.402 10.934,17.965 0.406,3.418 0.629,6.605 0.668,9.554 -0.246,1.161 -0.691,2.223 -1.34,3.184 0.836,1.141 0.836,2.125 0,2.953 0.582,0.875 0.508,1.711 -0.223,2.504 -0.707,-1.48 -1.824,-2.469 -3.347,-2.957 0.148,-0.152 0.297,-0.305 0.449,-0.453 -5.996,-6.902 -12.613,-12.738 -19.859,-17.512 -0.825,0.606 -1.047,0.531 -0.672,-0.226 -0.563,-0.508 -1.082,-0.582 -1.563,-0.231 -0.496,-1.273 -1.312,-1.726 -2.453,-1.363 -2.238,-2.203 -4.695,-4.172 -7.363,-5.914 -0.32,0.433 -0.692,0.508 -1.113,0.23 0.593,-0.304 0.593,-0.609 0,-0.91 -0.598,-0.305 -1.192,-0.305 -1.786,0 0.743,0.606 1.485,1.211 2.231,1.82 -0.223,0.075 -0.445,0.149 -0.672,0.227 -1.484,-0.984 -2.746,-2.195 -3.793,-3.641 0.434,-0.968 0.953,-1.879 1.563,-2.726 4.945,-3.707 9.183,-7.574 12.718,-11.598 -0.957,-0.34 -1.031,-0.719 -0.222,-1.141 0.562,0.122 1.008,0.422 1.34,0.911 0.406,-0.375 0.703,-0.832 0.89,-1.364 0.602,0.836 1.27,1.594 2.008,2.274 0.371,-0.414 0.816,-0.719 1.34,-0.91 1.027,0.41 2.066,0.484 3.125,0.23 -0.574,-0.973 -0.574,-1.957 0,-2.957 -1.488,-1.262 -1.488,-2.324 0,-3.184 z"
         style="fill:#5f615e;fill-opacity:1;fill-rule:evenodd;stroke:none"
         id="path76" />
      <path
         d="m 107.113,151.418 c 3.571,4.93 7.067,9.934 10.489,15.008 3.738,3.84 7.16,7.933 10.261,12.281 3.782,9.219 7.051,18.617 9.821,28.199 0.597,4.532 0.671,9.078 0.222,13.645 -4.015,0 -8.035,0 -12.051,0 0.758,-0.778 1.356,-1.688 1.786,-2.731 -0.723,-1.015 -0.575,-1.851 0.445,-2.5 -0.356,-1.187 -0.801,-2.398 -1.336,-3.636 0.25,-0.766 0.695,-1.372 1.336,-1.821 -0.805,-0.574 -1.398,-1.332 -1.785,-2.273 0.847,-0.504 1.144,-1.11 0.894,-1.82 -1.062,-0.446 -0.914,-0.747 0.446,-0.911 -1.344,-1.336 -1.196,-2.398 0.445,-3.183 -0.422,-0.219 -0.867,-0.297 -1.336,-0.227 -0.328,-1.804 -0.328,-3.551 0,-5.23 -0.539,-1.024 -1.137,-2.012 -1.785,-2.957 0.223,-0.555 0.371,-1.086 0.445,-1.594 -0.805,-0.145 -0.953,-0.445 -0.445,-0.91 -0.324,-0.633 -0.551,-1.317 -0.672,-2.043 -0.289,0.543 -0.516,0.543 -0.668,0 0.422,-0.899 0.121,-1.582 -0.895,-2.047 0.149,-0.152 0.301,-0.305 0.45,-0.457 -0.614,-0.656 -1.059,-1.414 -1.34,-2.273 0.379,-0.708 0.078,-1.165 -0.895,-1.364 0.352,-0.488 0.278,-1.019 -0.222,-1.594 -0.743,0.383 -0.817,0.157 -0.223,-0.683 -0.75,-0.883 -1.047,-1.793 -0.891,-2.727 -0.836,-0.492 -1.582,-1.101 -2.23,-1.82 0.57,-1.32 0.125,-2.535 -1.34,-3.637 0.149,-0.152 0.297,-0.304 0.445,-0.457 -1.066,-0.703 -1.66,-1.687 -1.785,-2.957 -0.469,0.071 -0.914,-0.008 -1.34,-0.226 0.426,-0.325 0.5,-0.703 0.223,-1.137 -0.957,-0.524 -1.773,-1.207 -2.453,-2.047 0.469,-0.781 0.172,-1.234 -0.891,-1.363 -0.179,-2.141 -1.144,-4.035 -2.902,-5.688 -0.148,0.153 -0.297,0.305 -0.445,0.457 -0.121,-0.832 -0.496,-1.515 -1.118,-2.047 0.469,-1.621 0.469,-3.289 0,-5.003 0.383,-0.786 0.829,-0.864 1.34,-0.227 z"
         style="fill:#606260;fill-opacity:1;fill-rule:evenodd;stroke:none"
         id="path78" />
      <path
         d="m 74.98,103.66 c 1.153,0.516 2.043,1.352 2.68,2.5 -2.808,-0.394 -5.558,-1.078 -8.258,-2.043 -1.113,0.262 -2.007,0.871 -2.675,1.817 -0.207,-0.27 -0.282,-0.575 -0.223,-0.911 -1.07,1.192 -1.516,2.633 -1.34,4.325 0.285,2.324 0.879,4.597 1.785,6.82 -0.148,0.152 -0.297,0.301 -0.445,0.453 0.652,0.629 1.098,0.629 1.336,0 -0.774,-3.242 -0.996,-6.652 -0.668,-10.234 0.516,-0.563 1.109,-1.016 1.785,-1.364 1.762,0.317 3.473,0.848 5.133,1.594 1.387,1.008 2.129,2.371 2.23,4.094 0.989,0.769 1.805,0.691 2.453,-0.227 -1.113,3.075 -0.144,5.348 2.903,6.821 -0.067,-0.477 0.008,-0.934 0.222,-1.364 1.637,2.27 2.383,4.848 2.231,7.731 0.383,-0.738 0.828,-0.891 1.34,-0.453 l 0.668,-1.367 c -0.297,-0.149 -0.594,-0.301 -0.891,-0.454 0.5,-0.5 0.5,-1.031 0,-1.593 0.18,-0.43 0.477,-0.731 0.891,-0.907 -0.969,-0.203 -1.266,-0.656 -0.891,-1.367 -0.715,-0.484 -1.16,-1.168 -1.34,-2.047 v -2.273 c -0.66,-1.316 -1.254,-2.684 -1.785,-4.094 l 0.895,-0.91 c -2.196,-0.535 -3.754,-2.051 -4.688,-4.547 -1.051,0.18 -2.164,0.18 -3.348,0 z m 6.696,13.645 v 1.367 h -2.231 c 0.188,0.328 0.485,0.555 0.895,0.68 -0.895,0.304 -1.789,0.304 -2.68,0 -1.808,-0.883 -1.66,-1.262 0.445,-1.137 -0.871,-0.289 -1.687,-0.742 -2.453,-1.363 -0.148,0.152 -0.297,0.3 -0.449,0.453 -0.613,-0.852 -1.133,-1.762 -1.558,-2.731 -0.415,0.52 -0.786,0.52 -1.118,0 -0.168,-0.414 -0.39,-0.793 -0.668,-1.136 1.059,-0.926 1.95,-1.989 2.676,-3.18 -1.617,-0.129 -2.512,-0.965 -2.676,-2.504 -0.734,0.098 -1.406,-0.055 -2.007,-0.457 -1.329,3.512 -1.329,7 0,10.465 1.515,1.324 3.078,2.539 4.683,3.636 -1.484,0.325 -2.898,0.024 -4.238,-0.91 -0.227,0.68 -0.004,1.211 0.668,1.59 1.976,1.313 4.058,2.375 6.25,3.188 3.379,1.433 5.461,0.371 6.246,-3.188 -0.543,-1.39 -0.914,-2.832 -1.117,-4.316 -0.172,-0.254 -0.391,-0.407 -0.668,-0.457 z"
         style="fill:#5f615e;fill-opacity:1;fill-rule:evenodd;stroke:none"
         id="path80" />
      <path
         d="m 109.789,169.156 c 0.059,0.336 -0.016,0.637 -0.223,0.91 -0.617,-2.211 -1.953,-2.968 -4.015,-2.277 0.418,-2.762 0.195,-5.492 -0.668,-8.184 0.015,-1.023 0.39,-1.324 1.113,-0.91 1.227,3.516 2.488,7 3.793,10.461 z"
         style="fill:#fefffe;fill-opacity:1;fill-rule:evenodd;stroke:none"
         id="path82" />
      <path
         d="m 65.164,134.59 c 6.27,4.488 12.371,9.262 18.297,14.324 -6.859,-3.418 -13.703,-6.98 -20.527,-10.687 -0.395,-0.375 -0.543,-0.829 -0.446,-1.364 0.172,-0.812 0.473,-1.57 0.891,-2.273 0.535,-0.414 1.133,-0.414 1.785,0 z"
         style="fill:#fdfdfd;fill-opacity:1;fill-rule:evenodd;stroke:none"
         id="path84" />
      <path
         d="m 74.98,103.66 c 1.153,0.516 2.043,1.352 2.68,2.5 -2.808,-0.394 -5.562,-1.078 -8.258,-2.047 -1.113,0.266 -2.007,0.875 -2.675,1.821 -0.207,-0.27 -0.282,-0.575 -0.223,-0.911 0.672,-0.605 1.418,-1.136 2.23,-1.589 2.098,-0.297 4.184,-0.219 6.246,0.226 z"
         style="fill:#fefffe;fill-opacity:1;fill-rule:evenodd;stroke:none"
         id="path86" />
      <path
         d="m 115.203,97.105 c -1.039,0.032 -1.953,0.547 -2.734,1.551 h 1.785 c -0.828,1.801 -0.309,3.012 1.562,3.641 0.789,-0.68 0.864,-1.438 0.223,-2.277 0.703,-0.364 1.449,-0.586 2.231,-0.68 -0.434,-0.801 -0.954,-1.028 -1.563,-0.684 -0.215,-0.429 -0.289,-0.886 -0.223,-1.363 -0.445,-0.137 -0.875,-0.199 -1.281,-0.188 z m -2.734,1.551 c -1.235,0.168 -2.129,0.778 -2.68,1.821 1.063,-0.387 1.957,-0.993 2.68,-1.821 z m -2.68,1.821 c -0.879,0.601 -1.769,1.207 -2.676,1.82 -0.605,0.535 -0.531,0.988 0.223,1.363 1.152,-0.625 2.269,-1.308 3.348,-2.047 -0.559,-0.191 -0.86,-0.566 -0.895,-1.136 z"
         style="fill:#000000;fill-opacity:1;fill-rule:evenodd;stroke:none"
         id="path88" />
      <path
         d="m 83.906,58.633 c 0.149,0 0.297,0 0.449,0 0.336,0.406 0.786,0.707 1.336,0.91 1.457,-0.793 2.278,-0.336 2.457,1.363 0.457,-0.996 1.125,-1.754 2.008,-2.273 0.922,0.008 1.813,0.16 2.676,0.453 2.191,0.152 4.57,0.226 7.141,0.23 0.41,0.168 0.781,0.395 1.117,0.68 0.137,-0.367 0.359,-0.672 0.668,-0.91 1.203,0.012 2.39,0.012 3.57,0 1.738,0.43 3.375,1.113 4.91,2.047 1.297,0.64 2.188,1.625 2.676,2.957 -0.476,0.426 -1.07,0.578 -1.785,0.457 0.023,-1.5 -0.57,-2.106 -1.785,-1.82 -1.137,-1.762 -1.582,-1.762 -1.34,0 -0.774,-0.426 -1.52,-0.426 -2.231,0 0.594,0.507 0.821,1.113 0.672,1.82 -0.808,-0.863 -1.777,-1.09 -2.902,-0.684 0.426,0.325 0.5,0.703 0.223,1.137 -0.399,-0.266 -0.844,-0.418 -1.34,-0.453 -0.762,0.723 -1.953,1.18 -3.571,1.363 -0.152,-0.441 -0.527,-0.82 -1.113,-1.137 -0.746,-0.152 -1.488,-0.304 -2.23,-0.457 -0.946,-1.312 -2.137,-2.296 -3.571,-2.957 -0.937,0.063 -1.609,0.516 -2.007,1.368 -2.508,-0.192 -2.582,0.265 -0.227,1.363 -0.508,0.422 -0.508,0.801 0,1.137 -1.047,0.05 -1.715,0.582 -2.008,1.593 -0.445,-0.609 -0.89,-0.609 -1.336,0 -1.179,-1.336 -2.297,-1.414 -3.347,-0.23 0.55,0.109 0.996,0.336 1.339,0.683 1.028,0.223 1.997,0.223 2.899,0 0.203,0.567 -0.02,0.946 -0.668,1.137 0.519,0.078 1.039,0.152 1.562,0.227 1.622,-0.594 3.254,-1.199 4.907,-1.817 4.304,0.848 8.394,1.91 12.273,3.184 0.742,-0.305 1.488,-0.606 2.231,-0.91 0.953,0.062 1.921,0.062 2.902,0 0.656,0.183 1.25,0.484 1.785,0.91 0.184,-0.207 0.406,-0.359 0.668,-0.457 0.305,0.34 0.602,0.641 0.895,0.91 1.316,2.027 2.879,3.848 4.683,5.457 2.27,5.512 4.574,10.969 6.918,16.375 -0.523,0.461 -0.82,1.066 -0.894,1.82 -0.891,0 -1.336,0.453 -1.336,1.364 -1.246,2.054 -1.098,4.027 0.445,5.914 3.145,3.812 6.121,7.754 8.926,11.824 0.07,0.754 0.367,1.359 0.89,1.82 0.09,1.114 -0.058,2.176 -0.445,3.184 -0.914,-0.883 -2.031,-1.336 -3.348,-1.363 -1.644,0.242 -3.281,0.546 -4.906,0.91 -1.031,0.004 -1.773,-0.45 -2.234,-1.367 -0.137,0.367 -0.36,0.671 -0.668,0.91 -0.352,-0.696 -0.797,-1.453 -1.34,-2.274 0.691,-0.883 1.582,-1.414 2.68,-1.593 -0.672,-0.227 -1.34,-0.454 -2.008,-0.68 -1.922,1.613 -3.184,3.66 -3.793,6.14 0.168,1.348 0.617,2.559 1.336,3.637 -0.297,0.606 -0.742,1.063 -1.336,1.363 0.203,0.192 0.351,0.418 0.445,0.684 -0.609,0.656 -1.281,1.262 -2.008,1.82 -0.308,-1.09 -0.757,-1.09 -1.339,0 0.05,-1.289 0.421,-2.504 1.117,-3.64 -0.199,-0.727 -0.496,-1.41 -0.895,-2.047 0.18,-0.43 0.481,-0.731 0.895,-0.91 -1.492,-0.305 -2.61,-1.137 -3.348,-2.5 -0.148,0.152 -0.297,0.304 -0.449,0.457 -1.305,-0.875 -2.047,-2.086 -2.231,-3.641 -0.406,0.524 -0.777,0.449 -1.113,-0.226 0.516,-0.418 0.438,-0.797 -0.223,-1.137 -0.148,0.152 -0.3,0.301 -0.449,0.453 -1.746,-1.324 -3.457,-2.766 -5.129,-4.32 0.715,-0.633 1.383,-1.313 2.008,-2.047 0.649,0.922 1.469,0.996 2.453,0.226 -0.535,-0.297 -0.535,-0.523 0,-0.679 0.297,0.148 0.594,0.3 0.891,0.453 0.535,-0.156 0.535,-0.383 0,-0.684 1.851,-0.441 3.637,-0.746 5.355,-0.906 -0.843,-0.445 -1.734,-0.746 -2.675,-0.91 0.5,-0.489 0.945,-1.02 1.339,-1.594 1.141,0.574 2.254,1.18 3.344,1.82 0.149,-0.152 0.301,-0.304 0.449,-0.457 0.297,0.61 0.594,1.215 0.891,1.821 0.867,-0.618 1.609,-0.465 2.231,0.457 0.566,-1.262 1.234,-2.477 2.007,-3.641 -0.261,-0.855 -0.558,-1.688 -0.89,-2.5 1.121,-2.883 0.375,-5.082 -2.231,-6.598 -1.769,0.797 -3.703,1.403 -5.801,1.821 -1.839,-0.328 -3.625,-0.481 -5.355,-0.453 0.055,-1.641 -0.691,-2.625 -2.234,-2.958 0.207,-0.187 0.355,-0.417 0.449,-0.683 -0.953,-0.441 -1.477,-1.199 -1.563,-2.274 -0.789,-0.335 -1.679,-0.335 -2.679,0 -1.344,-0.742 -2.61,-1.652 -3.793,-2.73 -0.465,0.402 -0.989,0.707 -1.563,0.91 -1.113,-0.23 -2.152,-0.23 -3.121,0 -0.098,-1.566 -0.547,-1.715 -1.34,-0.453 -0.269,-0.902 -0.715,-1.055 -1.34,-0.457 -0.406,-0.375 -0.703,-0.828 -0.89,-1.363 -0.321,0.433 -0.692,0.508 -1.117,0.226 0.543,-0.406 0.543,-0.785 0,-1.136 -0.336,0.398 -0.559,0.855 -0.668,1.367 -1.164,-0.848 -1.61,-1.91 -1.34,-3.184 -0.446,-0.758 -1.114,-1.441 -2.008,-2.047 0.469,-0.633 0.543,-1.316 0.223,-2.047 -0.184,0.207 -0.407,0.36 -0.668,0.454 -0.465,-0.852 -1.133,-1.461 -2.008,-1.821 -0.914,0.59 -1.883,0.817 -2.903,0.684 2.047,-0.895 3.981,-1.953 5.801,-3.184 -0.277,-0.34 -0.5,-0.722 -0.668,-1.136 -1.668,1.503 -3.527,2.261 -5.578,2.273 1.074,-0.434 2.043,-1.039 2.899,-1.82 0.3,-0.453 0.3,-0.911 0,-1.364 -0.93,1.235 -2.121,2.145 -3.567,2.731 0.031,-0.567 -0.043,-1.02 -0.226,-1.367 -0.614,0.55 -1.282,1.007 -2.008,1.367 -0.297,-0.305 -0.594,-0.61 -0.891,-0.91 -0.879,0.714 -1.847,1.093 -2.902,1.136 -0.149,-0.152 -0.297,-0.304 -0.445,-0.457 0.742,-0.453 1.488,-0.91 2.23,-1.363 0.672,-0.379 0.898,-0.91 0.672,-1.59 -0.813,1.25 -1.856,1.707 -3.125,1.364 -0.149,0.453 -0.297,0.91 -0.445,1.363 -0.668,-0.559 -1.336,-0.559 -2.008,0 -0.039,-0.453 0.109,-0.832 0.445,-1.137 0.891,-0.605 1.785,-1.211 2.676,-1.82 -0.57,-0.309 -1.094,-0.235 -1.563,0.23 -0.902,-1.047 -0.754,-2.109 0.45,-3.187 0.503,1.656 0.949,1.504 1.336,-0.453 0.148,0.605 0.3,1.214 0.449,1.82 0.793,-0.5 1.609,-0.953 2.453,-1.367 -0.238,-0.805 -0.61,-0.957 -1.117,-0.453 -0.305,-0.582 -0.231,-1.114 0.222,-1.594 0.715,-0.121 1.387,-0.352 2.012,-0.68 1.652,1.5 3.438,1.5 5.352,0 0.3,0.301 0.597,0.606 0.894,0.91 0.695,-0.886 1.215,-1.871 1.563,-2.957 -0.395,-0.5 -0.84,-0.726 -1.34,-0.683 0.234,-0.313 0.531,-0.543 0.894,-0.68 -1.058,-0.473 -1.879,-1.004 -2.457,-1.594 -0.816,1.028 -1.562,1.028 -2.23,0 -0.149,0.153 -0.297,0.305 -0.445,0.453 -0.274,-0.906 -0.051,-1.664 0.667,-2.273 0.149,0 0.297,0 0.446,0 0.554,1.133 1,1.133 1.34,0 0.148,0 0.297,0 0.445,0 0.426,0.297 0.945,0.449 1.562,0.457 0.899,0.086 1.567,-0.215 2.008,-0.91 z"
         style="fill:#fcfcfc;fill-opacity:1;fill-rule:evenodd;stroke:none"
         id="path90" />
      <text
         xml:space="preserve"
         transform="rotate(64.318956,-127.81117,101.79859)"
         style="font-variant:normal;font-weight:bold;font-size:22px;font-family:'Palatino Linotype';-inkscape-font-specification:PalatinoLinotype-Bold;writing-mode:lr-tb;fill:#ffffff;fill-opacity:1;fill-rule:nonzero;stroke:none"
         id="text94"><tspan
           x="0"
           y="0"
           id="tspan92">C</tspan></text>
      <text
         xml:space="preserve"
         transform="rotate(58.671044,-153.26038,117.03134)"
         style="font-variant:normal;font-weight:bold;font-size:22px;font-family:'Palatino Linotype';-inkscape-font-specification:PalatinoLinotype-Bold;writing-mode:lr-tb;fill:#ffffff;fill-opacity:1;fill-rule:nonzero;stroke:none"
         id="text98"><tspan
           x="0"
           y="0"
           id="tspan96">i</tspan></text>
      <text
         xml:space="preserve"
         transform="rotate(54.212308,-173.84133,126.1473)"
         style="font-variant:normal;font-weight:bold;font-size:22px;font-family:'Palatino Linotype';-inkscape-font-specification:PalatinoLinotype-Bold;writing-mode:lr-tb;fill:#ffffff;fill-opacity:1;fill-rule:nonzero;stroke:none"
         id="text102"><tspan
           x="0"
           y="0"
           id="tspan100">e</tspan></text>
      <text
         xml:space="preserve"
         transform="rotate(48.26645,-207.57939,141.96135)"
         style="font-variant:normal;font-weight:bold;font-size:22px;font-family:'Palatino Linotype';-inkscape-font-specification:PalatinoLinotype-Bold;writing-mode:lr-tb;fill:#ffffff;fill-opacity:1;fill-rule:nonzero;stroke:none"
         id="text106"><tspan
           x="0"
           y="0"
           id="tspan104">n</tspan></text>
      <text
         xml:space="preserve"
         transform="rotate(42.621156,-249.3861,164.55894)"
         style="font-variant:normal;font-weight:bold;font-size:22px;font-family:'Palatino Linotype';-inkscape-font-specification:PalatinoLinotype-Bold;writing-mode:lr-tb;fill:#ffffff;fill-opacity:1;fill-rule:nonzero;stroke:none"
         id="text110"><tspan
           x="0"
           y="0"
           id="tspan108">c</tspan></text>
      <text
         xml:space="preserve"
         transform="rotate(38.462974,-287.38657,185.09642)"
         style="font-variant:normal;font-weight:bold;font-size:22px;font-family:'Palatino Linotype';-inkscape-font-specification:PalatinoLinotype-Bold;writing-mode:lr-tb;fill:#ffffff;fill-opacity:1;fill-rule:nonzero;stroke:none"
         id="text114"><tspan
           x="0"
           y="0"
           id="tspan112">i</tspan></text>
      <text
         xml:space="preserve"
         transform="rotate(34.004236,-336.29737,207.3796)"
         style="font-variant:normal;font-weight:bold;font-size:22px;font-family:'Palatino Linotype';-inkscape-font-specification:PalatinoLinotype-Bold;writing-mode:lr-tb;fill:#ffffff;fill-opacity:1;fill-rule:nonzero;stroke:none"
         id="text118"><tspan
           x="0"
           y="0"
           id="tspan116">a</tspan></text>
      <text
         xml:space="preserve"
         transform="rotate(26.869206,-450.21792,267.72857)"
         style="font-variant:normal;font-weight:bold;font-size:22px;font-family:'Palatino Linotype';-inkscape-font-specification:PalatinoLinotype-Bold;writing-mode:lr-tb;fill:#ffffff;fill-opacity:1;fill-rule:nonzero;stroke:none"
         id="text122"><tspan
           x="0"
           y="0"
           id="tspan120">-</tspan></text>
      <text
         xml:space="preserve"
         transform="rotate(18.633869,-683.29365,372.33674)"
         style="font-variant:normal;font-weight:bold;font-size:22px;font-family:'Palatino Linotype';-inkscape-font-specification:PalatinoLinotype-Bold;writing-mode:lr-tb;fill:#ffffff;fill-opacity:1;fill-rule:nonzero;stroke:none"
         id="text126"><tspan
           x="0"
           y="0"
           id="tspan124">A</tspan></text>
      <text
         xml:space="preserve"
         transform="rotate(12.387449,-1070.2648,579.69495)"
         style="font-variant:normal;font-weight:bold;font-size:22px;font-family:'Palatino Linotype';-inkscape-font-specification:PalatinoLinotype-Bold;writing-mode:lr-tb;fill:#ffffff;fill-opacity:1;fill-rule:nonzero;stroke:none"
         id="text130"><tspan
           x="0"
           y="0"
           id="tspan128">r</tspan></text>
      <text
         xml:space="preserve"
         transform="rotate(8.5219905,-1589.639,845.95122)"
         style="font-variant:normal;font-weight:bold;font-size:22px;font-family:'Palatino Linotype';-inkscape-font-specification:PalatinoLinotype-Bold;writing-mode:lr-tb;fill:#ffffff;fill-opacity:1;fill-rule:nonzero;stroke:none"
         id="text134"><tspan
           x="0"
           y="0"
           id="tspan132">t</tspan></text>
      <text
         xml:space="preserve"
         transform="rotate(4.0632506,-3410.7656,1744.6937)"
         style="font-variant:normal;font-weight:bold;font-size:22px;font-family:'Palatino Linotype';-inkscape-font-specification:PalatinoLinotype-Bold;writing-mode:lr-tb;fill:#ffffff;fill-opacity:1;fill-rule:nonzero;stroke:none"
         id="text138"><tspan
           x="0"
           y="0"
           id="tspan136">e</tspan></text>
      <text
         xml:space="preserve"
         transform="rotate(-3.071776,4667.6321,-2329.4295)"
         style="font-variant:normal;font-weight:bold;font-size:22px;font-family:'Palatino Linotype';-inkscape-font-specification:PalatinoLinotype-Bold;writing-mode:lr-tb;fill:#ffffff;fill-opacity:1;fill-rule:nonzero;stroke:none"
         id="text142"><tspan
           x="0"
           y="0"
           id="tspan140">-</tspan></text>
      <text
         xml:space="preserve"
         transform="rotate(-11.989254,1243.9167,-564.41122)"
         style="font-variant:normal;font-weight:bold;font-size:22px;font-family:'Palatino Linotype';-inkscape-font-specification:PalatinoLinotype-Bold;writing-mode:lr-tb;fill:#ffffff;fill-opacity:1;fill-rule:nonzero;stroke:none"
         id="text146"><tspan
           x="0"
           y="0"
           id="tspan144">H</tspan></text>
      <text
         xml:space="preserve"
         transform="rotate(-19.717559,777.7224,-345.8467)"
         style="font-variant:normal;font-weight:bold;font-size:22px;font-family:'Palatino Linotype';-inkscape-font-specification:PalatinoLinotype-Bold;writing-mode:lr-tb;fill:#ffffff;fill-opacity:1;fill-rule:nonzero;stroke:none"
         id="text150"><tspan
           x="0"
           y="0"
           id="tspan148">u</tspan></text>
      <text
         xml:space="preserve"
         transform="rotate(-27.746429,568.86768,-235.49008)"
         style="font-variant:normal;font-weight:bold;font-size:22px;font-family:'Palatino Linotype';-inkscape-font-specification:PalatinoLinotype-Bold;writing-mode:lr-tb;fill:#ffffff;fill-opacity:1;fill-rule:nonzero;stroke:none"
         id="text154"><tspan
           x="0"
           y="0"
           id="tspan152">m</tspan></text>
      <text
         xml:space="preserve"
         transform="rotate(-35.182025,456.32976,-188.95467)"
         style="font-variant:normal;font-weight:bold;font-size:22px;font-family:'Palatino Linotype';-inkscape-font-specification:PalatinoLinotype-Bold;writing-mode:lr-tb;fill:#ffffff;fill-opacity:1;fill-rule:nonzero;stroke:none"
         id="text158"><tspan
           x="0"
           y="0"
           id="tspan156">a</tspan></text>
      <text
         xml:space="preserve"
         transform="rotate(-41.127871,396.66256,-157.18974)"
         style="font-variant:normal;font-weight:bold;font-size:22px;font-family:'Palatino Linotype';-inkscape-font-specification:PalatinoLinotype-Bold;writing-mode:lr-tb;fill:#ffffff;fill-opacity:1;fill-rule:nonzero;stroke:none"
         id="text162"><tspan
           x="0"
           y="0"
           id="tspan160">n</tspan></text>
      <text
         xml:space="preserve"
         transform="rotate(-46.179896,355.66157,-141.23156)"
         style="font-variant:normal;font-weight:bold;font-size:22px;font-family:'Palatino Linotype';-inkscape-font-specification:PalatinoLinotype-Bold;writing-mode:lr-tb;fill:#ffffff;fill-opacity:1;fill-rule:nonzero;stroke:none"
         id="text166"><tspan
           x="0"
           y="0"
           id="tspan164">i</tspan></text>
      <text
         xml:space="preserve"
         transform="rotate(-50.338076,329.43529,-126.3158)"
         style="font-variant:normal;font-weight:bold;font-size:22px;font-family:'Palatino Linotype';-inkscape-font-specification:PalatinoLinotype-Bold;writing-mode:lr-tb;fill:#ffffff;fill-opacity:1;fill-rule:nonzero;stroke:none"
         id="text170"><tspan
           x="0"
           y="0"
           id="tspan168">s</tspan></text>
      <text
         xml:space="preserve"
         transform="rotate(-57.473098,294.33927,-102.9814)"
         style="font-variant:normal;font-weight:bold;font-size:22px;font-family:'Palatino Linotype';-inkscape-font-specification:PalatinoLinotype-Bold;writing-mode:lr-tb;fill:#ffffff;fill-opacity:1;fill-rule:nonzero;stroke:none"
         id="text174"><tspan
           x="0"
           y="0"
           id="tspan172">m</tspan></text>
      <text
         xml:space="preserve"
         transform="rotate(-65.20925,260.38136,-90.338107)"
         style="font-variant:normal;font-weight:bold;font-size:22px;font-family:'Palatino Linotype';-inkscape-font-specification:PalatinoLinotype-Bold;writing-mode:lr-tb;fill:#ffffff;fill-opacity:1;fill-rule:nonzero;stroke:none"
         id="text178"><tspan
           x="0"
           y="0"
           id="tspan176">o</tspan></text>
      <text
         xml:space="preserve"
         transform="rotate(-97.940857,78.484929,62.307882)"
         style="font-variant:normal;font-weight:bold;font-size:18px;font-family:'Palatino Linotype';-inkscape-font-specification:PalatinoLinotype-Bold;writing-mode:lr-tb;fill:#ffffff;fill-opacity:1;fill-rule:nonzero;stroke:none"
         id="text182"><tspan
           x="0"
           y="0"
           id="tspan180">E</tspan></text>
      <text
         xml:space="preserve"
         transform="rotate(-92.773046,79.574798,57.2299)"
         style="font-variant:normal;font-weight:bold;font-size:18px;font-family:'Palatino Linotype';-inkscape-font-specification:PalatinoLinotype-Bold;writing-mode:lr-tb;fill:#ffffff;fill-opacity:1;fill-rule:nonzero;stroke:none"
         id="text186"><tspan
           x="0"
           y="0"
           id="tspan184">S</tspan></text>
      <text
         xml:space="preserve"
         transform="rotate(-87.024123,81.37729,51.545414)"
         style="font-variant:normal;font-weight:bold;font-size:18px;font-family:'Palatino Linotype';-inkscape-font-specification:PalatinoLinotype-Bold;writing-mode:lr-tb;fill:#ffffff;fill-opacity:1;fill-rule:nonzero;stroke:none"
         id="text190"><tspan
           x="0"
           y="0"
           id="tspan188">C</tspan></text>
      <text
         xml:space="preserve"
         transform="rotate(-80.440162,83.298828,43.930336)"
         style="font-variant:normal;font-weight:bold;font-size:18px;font-family:'Palatino Linotype';-inkscape-font-specification:PalatinoLinotype-Bold;writing-mode:lr-tb;fill:#ffffff;fill-opacity:1;fill-rule:nonzero;stroke:none"
         id="text194"><tspan
           x="0"
           y="0"
           id="tspan192">U</tspan></text>
      <text
         xml:space="preserve"
         transform="rotate(-74.437307,84.259816,34.734329)"
         style="font-variant:normal;font-weight:bold;font-size:18px;font-family:'Palatino Linotype';-inkscape-font-specification:PalatinoLinotype-Bold;writing-mode:lr-tb;fill:#ffffff;fill-opacity:1;fill-rule:nonzero;stroke:none"
         id="text198"><tspan
           x="0"
           y="0"
           id="tspan196">E</tspan></text>
      <text
         xml:space="preserve"
         transform="rotate(-69.293916,85.947936,26.673986)"
         style="font-variant:normal;font-weight:bold;font-size:18px;font-family:'Palatino Linotype';-inkscape-font-specification:PalatinoLinotype-Bold;writing-mode:lr-tb;fill:#ffffff;fill-opacity:1;fill-rule:nonzero;stroke:none"
         id="text202"><tspan
           x="0"
           y="0"
           id="tspan200">L</tspan></text>
      <text
         xml:space="preserve"
         transform="rotate(-63.29106,88.992461,17.085127)"
         style="font-variant:normal;font-weight:bold;font-size:18px;font-family:'Palatino Linotype';-inkscape-font-specification:PalatinoLinotype-Bold;writing-mode:lr-tb;fill:#ffffff;fill-opacity:1;fill-rule:nonzero;stroke:none"
         id="text206"><tspan
           x="0"
           y="0"
           id="tspan204">A</tspan></text>
      <text
         xml:space="preserve"
         transform="rotate(-53.595152,93.614838,-4.7091969)"
         style="font-variant:normal;font-weight:bold;font-size:18px;font-family:'Palatino Linotype';-inkscape-font-specification:PalatinoLinotype-Bold;writing-mode:lr-tb;fill:#ffffff;fill-opacity:1;fill-rule:nonzero;stroke:none"
         id="text210"><tspan
           x="0"
           y="0"
           id="tspan208">U</tspan></text>
      <text
         xml:space="preserve"
         transform="rotate(-46.456939,98.392609,-25.487)"
         style="font-variant:normal;font-weight:bold;font-size:18px;font-family:'Palatino Linotype';-inkscape-font-specification:PalatinoLinotype-Bold;writing-mode:lr-tb;fill:#ffffff;fill-opacity:1;fill-rule:nonzero;stroke:none"
         id="text214"><tspan
           x="0"
           y="0"
           id="tspan212">N</tspan></text>
      <text
         xml:space="preserve"
         transform="rotate(-41.262268,100.61418,-50.60289)"
         style="font-variant:normal;font-weight:bold;font-size:18px;font-family:'Palatino Linotype';-inkscape-font-specification:PalatinoLinotype-Bold;writing-mode:lr-tb;fill:#ffffff;fill-opacity:1;fill-rule:nonzero;stroke:none"
         id="text218"><tspan
           x="0"
           y="0"
           id="tspan216">I</tspan></text>
      <text
         xml:space="preserve"
         transform="rotate(-36.343504,107.41536,-69.77806)"
         style="font-variant:normal;font-weight:bold;font-size:18px;font-family:'Palatino Linotype';-inkscape-font-specification:PalatinoLinotype-Bold;writing-mode:lr-tb;fill:#ffffff;fill-opacity:1;fill-rule:nonzero;stroke:none"
         id="text222"><tspan
           x="0"
           y="0"
           id="tspan220">V</tspan></text>
      <text
         xml:space="preserve"
         transform="rotate(-30.340654,114.94236,-111.76688)"
         style="font-variant:normal;font-weight:bold;font-size:18px;font-family:'Palatino Linotype';-inkscape-font-specification:PalatinoLinotype-Bold;writing-mode:lr-tb;fill:#ffffff;fill-opacity:1;fill-rule:nonzero;stroke:none"
         id="text226"><tspan
           x="0"
           y="0"
           id="tspan224">E</tspan></text>
      <text
         xml:space="preserve"
         transform="rotate(-24.657661,126.90601,-164.34981)"
         style="font-variant:normal;font-weight:bold;font-size:18px;font-family:'Palatino Linotype';-inkscape-font-specification:PalatinoLinotype-Bold;writing-mode:lr-tb;fill:#ffffff;fill-opacity:1;fill-rule:nonzero;stroke:none"
         id="text230"><tspan
           x="0"
           y="0"
           id="tspan228">R</tspan></text>
      <text
         xml:space="preserve"
         transform="rotate(-18.950247,144.76697,-253.93499)"
         style="font-variant:normal;font-weight:bold;font-size:18px;font-family:'Palatino Linotype';-inkscape-font-specification:PalatinoLinotype-Bold;writing-mode:lr-tb;fill:#ffffff;fill-opacity:1;fill-rule:nonzero;stroke:none"
         id="text234"><tspan
           x="0"
           y="0"
           id="tspan232">S</tspan></text>
      <text
         xml:space="preserve"
         transform="rotate(-12.922977,182.23382,-422.5439)"
         style="font-variant:normal;font-weight:bold;font-size:18px;font-family:'Palatino Linotype';-inkscape-font-specification:PalatinoLinotype-Bold;writing-mode:lr-tb;fill:#ffffff;fill-opacity:1;fill-rule:nonzero;stroke:none"
         id="text238"><tspan
           x="0"
           y="0"
           id="tspan236">A</tspan></text>
      <text
         xml:space="preserve"
         transform="rotate(-6.9201264,281.20059,-905.60654)"
         style="font-variant:normal;font-weight:bold;font-size:18px;font-family:'Palatino Linotype';-inkscape-font-specification:PalatinoLinotype-Bold;writing-mode:lr-tb;fill:#ffffff;fill-opacity:1;fill-rule:nonzero;stroke:none"
         id="text242"><tspan
           x="0"
           y="0"
           id="tspan240">L</tspan></text>
      <text
         xml:space="preserve"
         transform="rotate(1.0788001,-1306.9512,6675.4002)"
         style="font-variant:normal;font-weight:bold;font-size:18px;font-family:'Palatino Linotype';-inkscape-font-specification:PalatinoLinotype-Bold;writing-mode:lr-tb;fill:#ffffff;fill-opacity:1;fill-rule:nonzero;stroke:none"
         id="text246"><tspan
           x="0"
           y="0"
           id="tspan244">P</tspan></text>
      <text
         xml:space="preserve"
         transform="rotate(5.160018,-220.86524,1508.6195)"
         style="font-variant:normal;font-weight:bold;font-size:18px;font-family:'Palatino Linotype';-inkscape-font-specification:PalatinoLinotype-Bold;writing-mode:lr-tb;fill:#ffffff;fill-opacity:1;fill-rule:nonzero;stroke:none"
         id="text250"><tspan
           x="0"
           y="0"
           id="tspan248">I</tspan></text>
      <text
         xml:space="preserve"
         transform="rotate(9.2192406,-93.234159,882.22177)"
         style="font-variant:normal;font-weight:bold;font-size:18px;font-family:'Palatino Linotype';-inkscape-font-specification:PalatinoLinotype-Bold;writing-mode:lr-tb;fill:#ffffff;fill-opacity:1;fill-rule:nonzero;stroke:none"
         id="text254"><tspan
           x="0"
           y="0"
           id="tspan252">E</tspan></text>
      <text
         xml:space="preserve"
         transform="rotate(14.90211,-31.210607,584.68106)"
         style="font-variant:normal;font-weight:bold;font-size:18px;font-family:'Palatino Linotype';-inkscape-font-specification:PalatinoLinotype-Bold;writing-mode:lr-tb;fill:#ffffff;fill-opacity:1;fill-rule:nonzero;stroke:none"
         id="text258"><tspan
           x="0"
           y="0"
           id="tspan256">R</tspan></text>
      <text
         xml:space="preserve"
         transform="rotate(21.12459,-1.6710187,444.74598)"
         style="font-variant:normal;font-weight:bold;font-size:18px;font-family:'Palatino Linotype';-inkscape-font-specification:PalatinoLinotype-Bold;writing-mode:lr-tb;fill:#ffffff;fill-opacity:1;fill-rule:nonzero;stroke:none"
         id="text262"><tspan
           x="0"
           y="0"
           id="tspan260">R</tspan></text>
      <text
         xml:space="preserve"
         transform="rotate(26.807461,12.936549,375.28437)"
         style="font-variant:normal;font-weight:bold;font-size:18px;font-family:'Palatino Linotype';-inkscape-font-specification:PalatinoLinotype-Bold;writing-mode:lr-tb;fill:#ffffff;fill-opacity:1;fill-rule:nonzero;stroke:none"
         id="text266"><tspan
           x="0"
           y="0"
           id="tspan264">E</tspan></text>
      <text
         xml:space="preserve"
         transform="rotate(35.089493,26.580427,310.58111)"
         style="font-variant:normal;font-weight:bold;font-size:18px;font-family:'Palatino Linotype';-inkscape-font-specification:PalatinoLinotype-Bold;writing-mode:lr-tb;fill:#ffffff;fill-opacity:1;fill-rule:nonzero;stroke:none"
         id="text270"><tspan
           x="0"
           y="0"
           id="tspan268">Y</tspan></text>
      <text
         xml:space="preserve"
         transform="rotate(45.341886,38.027804,259.70169)"
         style="font-variant:normal;font-weight:bold;font-size:18px;font-family:'Palatino Linotype';-inkscape-font-specification:PalatinoLinotype-Bold;writing-mode:lr-tb;fill:#ffffff;fill-opacity:1;fill-rule:nonzero;stroke:none"
         id="text274"><tspan
           x="0"
           y="0"
           id="tspan272">M</tspan></text>
      <text
         xml:space="preserve"
         transform="rotate(53.314968,42.229257,237.57153)"
         style="font-variant:normal;font-weight:bold;font-size:18px;font-family:'Palatino Linotype';-inkscape-font-specification:PalatinoLinotype-Bold;writing-mode:lr-tb;fill:#ffffff;fill-opacity:1;fill-rule:nonzero;stroke:none"
         id="text278"><tspan
           x="0"
           y="0"
           id="tspan276">A</tspan></text>
      <text
         xml:space="preserve"
         transform="rotate(59.85729,45.239405,222.5217)"
         style="font-variant:normal;font-weight:bold;font-size:18px;font-family:'Palatino Linotype';-inkscape-font-specification:PalatinoLinotype-Bold;writing-mode:lr-tb;fill:#ffffff;fill-opacity:1;fill-rule:nonzero;stroke:none"
         id="text282"><tspan
           x="0"
           y="0"
           id="tspan280">R</tspan></text>
      <text
         xml:space="preserve"
         transform="rotate(64.456099,45.729094,215.59776)"
         style="font-variant:normal;font-weight:bold;font-size:18px;font-family:'Palatino Linotype';-inkscape-font-specification:PalatinoLinotype-Bold;writing-mode:lr-tb;fill:#ffffff;fill-opacity:1;fill-rule:nonzero;stroke:none"
         id="text286"><tspan
           x="0"
           y="0"
           id="tspan284">I</tspan></text>
      <text
         xml:space="preserve"
         transform="rotate(68.515316,48.231008,206.76254)"
         style="font-variant:normal;font-weight:bold;font-size:18px;font-family:'Palatino Linotype';-inkscape-font-specification:PalatinoLinotype-Bold;writing-mode:lr-tb;fill:#ffffff;fill-opacity:1;fill-rule:nonzero;stroke:none"
         id="text290"><tspan
           x="0"
           y="0"
           id="tspan288">E</tspan></text>
      <text
         xml:space="preserve"
         transform="rotate(77.073248,51.50642,192.96368)"
         style="font-variant:normal;font-weight:bold;font-size:18px;font-family:'Palatino Linotype';-inkscape-font-specification:PalatinoLinotype-Bold;writing-mode:lr-tb;fill:#ffffff;fill-opacity:1;fill-rule:nonzero;stroke:none"
         id="text294"><tspan
           x="0"
           y="0"
           id="tspan292">C</tspan></text>
      <text
         xml:space="preserve"
         transform="rotate(83.657078,53.54493,184.21865)"
         style="font-variant:normal;font-weight:bold;font-size:18px;font-family:'Palatino Linotype';-inkscape-font-specification:PalatinoLinotype-Bold;writing-mode:lr-tb;fill:#ffffff;fill-opacity:1;fill-rule:nonzero;stroke:none"
         id="text298"><tspan
           x="0"
           y="0"
           id="tspan296">U</tspan></text>
      <text
         xml:space="preserve"
         transform="rotate(90.19943,54.819888,177.13711)"
         style="font-variant:normal;font-weight:bold;font-size:18px;font-family:'Palatino Linotype';-inkscape-font-specification:PalatinoLinotype-Bold;writing-mode:lr-tb;fill:#ffffff;fill-opacity:1;fill-rule:nonzero;stroke:none"
         id="text302"><tspan
           x="0"
           y="0"
           id="tspan300">R</tspan></text>
      <text
         xml:space="preserve"
         transform="rotate(94.7983,54.354225,173.76468)"
         style="font-variant:normal;font-weight:bold;font-size:18px;font-family:'Palatino Linotype';-inkscape-font-specification:PalatinoLinotype-Bold;writing-mode:lr-tb;fill:#ffffff;fill-opacity:1;fill-rule:nonzero;stroke:none"
         id="text306"><tspan
           x="0"
           y="0"
           id="tspan304">I</tspan></text>
      <text
         xml:space="preserve"
         transform="rotate(98.857609,56.149304,168.95469)"
         style="font-variant:normal;font-weight:bold;font-size:18px;font-family:'Palatino Linotype';-inkscape-font-specification:PalatinoLinotype-Bold;writing-mode:lr-tb;fill:#ffffff;fill-opacity:1;fill-rule:nonzero;stroke:none"
         id="text310"><tspan
           x="0"
           y="0"
           id="tspan308">E</tspan></text>
    </g>
  </g>
</svg>
